<svg version="1.1" xmlns="http://www.w3.org/2000/svg" viewBox="0 0 660.5415440760007 413.7366973983717" width="660.5415440760007" height="413.7366973983717" filter="invert(93%) hue-rotate(180deg)">
  <!-- svg-source:excalidraw -->
  
  <defs>
    <style class="style-fonts">
      
    </style>
    
  </defs>
  <g stroke-linecap="round"><g stroke-opacity="0.8" fill-opacity="0.8" transform="translate(12.643489387632144 12.276230356097585) rotate(0 314.86508808662984 192.458570781836)" fill-rule="evenodd"><path d="M0 0 C0 0, 0 0, 0 0 M0 0 C0 0, 0 0, 0 0 M1.75 4.85 C3.18 3.44, 3.83 2.56, 4.51 0.69 M1.81 4.09 C2.22 3.53, 3.49 2.49, 4.47 0.94 M3.91 8.58 C3.56 5.52, 5.22 6.24, 7.89 2.61 M3.12 7.73 C4.96 6.72, 7.35 3.83, 8.56 2.85 M6.29 11.42 C6.21 10.58, 8.24 9.67, 11.67 4.53 M4.34 12.45 C8.53 8.71, 10.01 6.25, 13.28 3.28 M9.3 13.66 C12.41 15.63, 12 8.35, 15.57 3.19 M6.49 15.67 C8.43 15.71, 9.44 12.71, 17.48 4.2 M10.23 24.14 C10.12 14.49, 17.86 13.9, 20.47 8.73 M10.02 20.69 C11.93 15.53, 15.58 12.29, 20.22 7.5 M14.13 26.69 C17.47 21.99, 22.34 14.88, 27.56 10.37 M10.95 23.2 C14.53 21.31, 15.91 17.65, 24.64 8.56 M9.27 30.23 C19.41 21.76, 15.81 22.32, 30.08 12.9 M10.19 29.7 C16.52 24.26, 19.9 18.56, 27.55 10.6 M10.92 31.66 C22.54 29.97, 26.85 20.11, 29.74 11.01 M12.7 33.5 C19.33 27.25, 26.18 18.09, 34.16 10.37 M18.17 39.99 C25.53 30.61, 26.05 18.46, 35.2 12.38 M15.97 36.93 C23.04 28.07, 30.43 20.1, 37.91 13.83 M19.12 39.65 C26.52 35.46, 27.42 26.64, 39.23 13.44 M15.76 41.84 C23.24 32.69, 31.53 24.41, 41.99 15.22 M19.94 41.58 C27.18 33.82, 32.44 23.41, 41.61 16.1 M19.53 44.07 C27.26 36.05, 31.94 28.11, 46.83 13.29 M17.82 46.16 C27.85 45.61, 32.56 35.94, 48.1 12.45 M20.01 48 C27.82 39.45, 38.92 30.78, 49.56 15.54 M21.96 54.27 C27.1 43.13, 39.16 35.94, 55.55 16.34 M20.64 53.03 C31.09 42.44, 39.72 32.59, 53.59 17.26 M26.62 54.23 C35.5 40.9, 49.56 32.73, 58.83 16.07 M25.11 56.05 C34.14 48.51, 40.16 37.55, 56.05 17.75 M24.07 64.85 C36.79 53.55, 47.04 40.48, 57.82 23.14 M26.81 61.99 C35.59 49.89, 46.65 38.94, 63.28 20.56 M25.62 66.39 C34.66 52.16, 44.66 49.15, 66.45 23.79 M26.42 66.29 C41.24 52.74, 56.44 36.46, 64.38 20.53 M26.62 67.58 C44.2 51.12, 54.85 32.52, 71.68 19.75 M29.3 69.38 C39.72 56.77, 50.27 44.5, 70.69 23.99 M27.44 76.64 C43.49 61.24, 57.67 38.88, 72.48 20.92 M31.09 75.26 C47.05 54.86, 61.95 37.1, 75.24 25.06 M30.47 80.24 C51.41 59.27, 64.8 40.04, 80.23 29.71 M31.13 77.88 C43.83 68.75, 50.4 54.09, 77.7 25.35 M37.15 86.52 C51.4 64.91, 62.44 52.05, 80.94 29.97 M34 83.76 C49.64 61.52, 65.75 45.2, 83.06 26.5 M36.96 88.09 C45.99 78.57, 61.94 63.26, 83.72 27.29 M35.04 86.41 C55.44 63.78, 76.96 39.04, 86.6 29.93 M36.38 89.04 C46.23 78.57, 61.46 61.18, 87.68 33.71 M37.8 92.85 C54.06 74.62, 64.48 57.1, 89.34 29.05 M39.95 91.92 C59.3 73.25, 72.31 56.42, 96.95 28.51 M39.57 94.14 C60.36 71.93, 76.11 50.58, 93.48 33.54 M39.22 100.75 C51.3 82.86, 69.23 67.34, 97.71 29.66 M40.86 99.83 C63.14 74.03, 85.16 48.56, 100 32.36 M41.78 100 C63.4 82.71, 79.31 62.17, 105.17 38.64 M42.96 104.5 C65.27 77.13, 86.99 47.64, 104.12 33.98 M44.27 105.64 C55.88 90.29, 73.96 79.76, 106.56 33.11 M45.33 106.25 C62.99 87.41, 81.28 64.94, 106.75 34.62 M45.32 112.1 C62.24 97.22, 76.54 77.02, 110.14 38.46 M47.23 113.17 C64.62 89.69, 80.93 67.88, 112.07 37.29 M50.63 119.26 C65.63 96.54, 88.61 66.47, 112.24 40.56 M49.09 113.9 C66.9 94.59, 84.35 71.62, 115 40.01 M45.91 119.49 C72.68 94.07, 99.59 69.43, 120.16 42.49 M50.14 120.07 C76.76 87.97, 102.16 58.43, 120.65 40.04 M49.91 124.62 C71.58 97.9, 88.75 77.03, 121.27 40.05 M49.78 124.85 C65.35 106.12, 83.98 87.31, 121.92 40.94 M55.4 128.95 C78.58 98.44, 109.09 61.61, 129.97 46.51 M53.2 129.39 C71.91 103.54, 91.8 82.25, 126.91 44.77 M58.2 136.24 C74.24 104.03, 101 80.97, 130.67 45.36 M52.79 133.38 C82.77 100.76, 108.32 70.05, 130.45 44.35 M54.15 138.75 C85.02 98.34, 114.14 65.64, 134.84 45.79 M57.68 137.53 C81.49 107.96, 104.23 81.86, 135.63 46.28 M60.12 144.16 C76.33 116.95, 92.99 97.8, 139.96 43.49 M59.24 142.06 C75.16 122.25, 94.65 102.04, 141.27 47.16 M63.01 146.66 C90.15 110.4, 115.01 84.43, 144.55 45.35 M60.58 145.19 C80.9 116.12, 107.3 91.99, 145.39 49.87 M64.75 145.89 C79.53 129.6, 100.66 104.18, 149.15 52.98 M62.04 149.68 C85.67 118.89, 109.07 92.73, 146.79 50.55 M63.32 149.96 C94.81 111.94, 131.7 78.01, 155.36 47.47 M62.67 153.28 C81.65 132.23, 104.47 106.83, 152.49 50.85 M65.7 154.45 C103.12 113.85, 139.31 77.65, 156.78 54.1 M65.8 155.29 C90.05 129.12, 115.64 101.74, 157.22 50.19 M68.94 161.42 C91.83 127.62, 124.8 94.39, 164.04 53.91 M68.47 162.99 C99.62 118.26, 135.61 79.3, 160.97 52.76 M65.08 166.38 C99.43 129.15, 134.31 90.59, 164.5 55.62 M66.93 166.19 C94.72 133.24, 123.91 98.53, 165.12 55 M70.22 169.32 C91.94 145.11, 121.74 114.76, 166.52 59.45 M70.22 167.73 C100.07 132.61, 132.05 92.76, 169.3 56.9 M73.48 169.69 C115.82 124.41, 152.54 79.76, 173.17 59.31 M73.56 173.94 C106.25 133.9, 138.81 94.17, 173.51 55.67 M74.02 177.42 C102.56 140.87, 132.81 106.61, 176.56 56.86 M71.95 177.18 C110.19 133.91, 147.72 93.68, 177.03 55.32 M78.01 183.91 C104.03 148.93, 130.13 110.33, 182.83 59.96 M73.58 182.33 C105.92 146.55, 139.58 109, 183.84 56.62 M79.68 189.01 C103.33 156.98, 129.41 128.58, 190.46 56.68 M77.41 185.28 C110 148.18, 143.29 111.62, 185.49 58.59 M82.27 188.06 C110.77 153.48, 143.4 110.54, 187.99 57.58 M78.61 191.42 C118.81 138.77, 160.85 92.37, 191.28 60.27 M79.06 190.85 C112.47 151, 151.89 107.1, 198.97 58.67 M82.11 194.19 C104.69 159.34, 134.85 128.54, 193.72 63.24 M82.35 200.66 C122.78 153.8, 166.31 106.35, 199 60.45 M80.06 197.51 C119.59 152.59, 160.34 108.93, 198.08 62.06 M80.5 201.22 C122.17 161.73, 154.93 119.65, 200.69 62.86 M85.33 202.34 C118.09 169.75, 147.89 133.61, 203.85 62.83 M82.87 207.74 C125.8 155.3, 168.16 109.55, 210.7 68.34 M85.05 205.15 C129.3 150.26, 176.39 98.4, 210.26 65.65 M84.86 213.89 C133.82 156.84, 185.97 102.79, 210.72 68.77 M86.07 212.41 C119.12 176.37, 151.16 139.75, 213.78 67.16 M88.92 218.82 C132.58 164.8, 175.07 116.31, 218.46 64.52 M88.47 215.13 C127.4 170.27, 163.85 129.49, 217.59 66.98 M93.19 221.83 C128.3 176.04, 165.7 127.28, 220.77 67.49 M91.02 219.29 C132.97 168.52, 175.49 118.65, 221.18 66.46 M90.32 226.52 C145.07 163.61, 194.66 97.98, 226.11 71.5 M92.88 224.37 C130.85 176.75, 173.98 126.17, 225.61 70.11 M92.44 226.8 C132.38 183.7, 173.09 141.93, 231.26 72.24 M94.78 226.37 C120.85 192.61, 152.57 157.33, 231.84 69.72 M92.89 232.44 C144.14 171.13, 199.44 110.04, 238.29 71.5 M96.75 230.7 C130.25 193.99, 163.41 155.62, 236.01 70.99 M99.2 235.9 C146.95 170.78, 205.56 114.32, 241.59 75.28 M95.96 236.49 C132.11 195.93, 164.69 154.67, 238.27 73.36 M102.25 236.34 C142.44 186.33, 188.94 138.86, 244.42 70.78 M98.52 239.03 C147.81 181.98, 194.72 126.94, 245.45 71.04 M101.84 241.89 C127.95 210.15, 164.09 170.02, 247.14 73.09 M99.84 242.36 C154.75 184.93, 208.32 121.74, 249.58 74.86 M103.73 244.7 C137.48 207.36, 168 171.71, 255.48 74.61 M103.3 247.41 C139.59 205.45, 177.04 164.51, 253.97 75.23 M103.4 251.04 C136.51 212.48, 173.96 170.88, 255.62 77.62 M104.4 250.88 C152.13 192.27, 200.24 137.82, 258.69 74.25 M104.05 256.5 C163.39 196.28, 215.08 138.48, 264.03 78.61 M105.63 257.54 C142.67 213.86, 179.02 171.84, 263.31 76.19 M107.11 262.19 C139.65 226.03, 171.37 189.8, 267.96 79.8 M107.55 262.06 C155.11 208.42, 198.96 153.71, 265.38 78.43 M109.92 263.79 C147.4 217.18, 186.05 173.68, 274.79 80.41 M110.05 264.65 C172.33 195.69, 232.86 126.9, 273.03 75.97 M109.91 267.31 C163.73 202.33, 225.11 140.88, 274.34 81.52 M110.39 269.6 C156.75 218.14, 198.53 165.26, 277.68 78.82 M115.1 271.65 C171.26 208.36, 228.19 144.15, 279.62 77.48 M114.15 274.19 C176.59 204.74, 236.56 132.76, 279.23 79.95 M115.7 277.73 C153.89 225.5, 195.71 180.36, 283.32 79.97 M113.73 277.42 C154.62 229.16, 195.25 183, 284.99 79.36 M114.15 278.09 C181.48 204.11, 249.85 124.48, 292.26 83.86 M115.46 281.9 C172.94 218.88, 226.16 157.69, 289.54 81.65 M115.98 284.74 C165.77 235.86, 210.02 184.65, 296.94 84.72 M118.16 286.24 C158.08 241.55, 193.15 200.8, 292.9 80.84 M121.1 287.09 C184.43 212.63, 247.41 143.47, 299.11 83.26 M120.87 290.26 C176.31 227.86, 232.58 164.41, 299.61 83.58 M121.72 292.22 C182.46 226.6, 242.94 152.72, 300.88 83.57 M120.92 293.82 C157.4 252.53, 195.98 206.73, 302.21 85.06 M124.9 295.86 C158.26 250.94, 198.24 210.95, 306.21 84.66 M124.33 298.69 C176.01 231.73, 232.41 166.16, 308.24 85.29 M125.32 303.35 C170.71 251.09, 217.82 197.55, 310.65 85.16 M125.34 301.31 C170.76 243.66, 221.99 185.81, 311.54 83.92 M127.67 307.43 C179.07 251.43, 226.43 193.07, 315.47 87.81 M126.06 306.86 C166.24 256.95, 208.4 207.15, 316.04 87.33 M126.05 308.89 C186.38 243.84, 243.03 182.59, 323.1 85.27 M128.35 309.96 C174.79 257.96, 218.73 203.92, 322.4 87.97 M131.75 312.48 C178.79 259.18, 229.1 198.51, 327.12 88.38 M129.01 314.63 C174.85 261.72, 219.77 208.38, 327.41 86.66 M129.43 317.33 C178.02 270.53, 217.77 222.17, 331.8 89.08 M132.77 318.2 C203 235.49, 275.71 151.01, 332.05 87.49 M133.89 325.06 C192.98 254.07, 249.33 187.13, 336.62 87.08 M132.84 322.08 C192.84 254.78, 251.56 186.81, 335.32 88.6 M135.18 324.79 C200.37 254.6, 266.48 181.42, 340.69 91.77 M135.32 327.6 C203.55 248.62, 273.04 169.73, 338.82 90.08 M137.12 329.61 C197.24 263.65, 257.89 191.48, 345.74 89.85 M137.08 329.42 C215.18 239.56, 294.62 149.1, 344.38 89.78 M137.18 333.67 C200 265.98, 260.78 194.27, 349.45 92.65 M137.74 334.96 C183.02 281.07, 229.32 225.38, 350.59 90.31 M138.36 339.78 C209.16 260.76, 276.83 180.07, 356.46 90.78 M140.44 340.55 C200.63 272.69, 260.25 204.6, 353.15 92.78 M142.96 343.62 C186.52 291.07, 233.94 240.85, 361.63 92.99 M140.63 343.5 C209.11 260.04, 280.11 177.72, 358.89 93.71 M142.44 349.39 C199.75 279.77, 259.07 212.06, 366.21 94.1 M143.5 348.93 C187.88 295.25, 233.52 243.27, 363.5 93.98 M141.92 350.81 C227.53 260.45, 305.89 165.82, 366.75 91.47 M145.19 353.12 C220.58 259.47, 300.05 169.71, 368.31 92.79 M146.99 354.62 C231.39 259.44, 317.5 158.88, 376.32 95.08 M147.4 356.13 C228.63 264.78, 307.1 170.37, 375.04 95.07 M146.12 361.11 C230.78 265.02, 318.15 161.92, 376.38 96.87 M147.73 360.62 C197.32 301.34, 252.12 239.22, 377.74 93.76 M151.41 365.59 C230.17 276.06, 308.4 186.39, 385.69 96.42 M149.15 364.87 C239.06 262.58, 324.84 163.71, 384.63 94.88 M152.91 367.91 C230.87 276.47, 305.47 191.18, 389.96 92.99 M153.68 366.81 C217.15 291.51, 284.38 214.47, 389.81 96.26 M154.89 371.86 C236.76 272.74, 323.87 175.48, 391.79 97.42 M155.27 370.96 C225.55 287.01, 294.52 207.44, 394.95 94.61 M158.38 371.94 C211.48 308.74, 266.62 248.88, 398.69 93 M158.53 372.23 C222.73 299.31, 286.5 225.26, 400.6 96.24 M161.87 378.29 C224 302.04, 288.45 230.75, 403.67 95.67 M159.33 375.63 C247.33 275.49, 335.49 173.71, 404.59 96.55 M164.04 378.52 C236.47 295.31, 311.53 212.05, 407.41 96.32 M162.8 380.02 C248.43 282.16, 330.32 189.48, 409.31 97.15 M167.14 379.44 C231.29 303.25, 295.76 232.1, 413.59 95.66 M167.29 382.56 C232.13 311.51, 293.89 238.63, 415.07 95.5 M168.69 385.25 C264.11 279.7, 350.62 176.74, 418.65 94.45 M171.14 383.86 C234.46 310.4, 299.68 236.19, 419.95 97.07 M172.19 382.61 C270.57 272.14, 366.98 163.42, 427.38 97.61 M174.01 384.33 C232.67 312.34, 295.03 240.28, 426.03 94.99 M180.4 385.57 C275.55 269.9, 375.43 157.6, 429.13 94.69 M177.73 385.73 C233.35 319.47, 289.33 255.53, 430.17 95.74 M180.82 387.98 C280.55 270.47, 380.99 156.69, 438.24 95.73 M183.66 386.41 C237.15 320.37, 295.1 255.84, 436.22 95.07 M187.11 388.45 C284.61 275.2, 383.33 164.38, 444.76 95.06 M189.66 386.76 C246.43 321.04, 304.67 256.33, 441.62 93.81 M194.91 387.87 C261.62 304.72, 328.87 231.16, 445.89 92.03 M193.35 386.56 C270.74 300.84, 342.57 217.5, 447.84 94.53 M200.79 388.3 C276.71 299.94, 354.88 214.57, 453.53 92.68 M199.63 385.9 C269.35 308.68, 336.59 230.64, 454.08 93.65 M204.04 387.51 C297.32 278.85, 390.12 169.09, 459.62 92.8 M203.83 386.48 C297.31 283.63, 387.13 178.4, 460.58 92.31 M210.09 388.69 C287.21 301.65, 363.68 209.7, 467.26 93.72 M209.64 386.94 C310.2 272.2, 405.69 158.45, 464.82 93.09 M214.16 384.88 C284.1 307.56, 349.42 230.57, 470.23 94.68 M215.33 385.77 C306.26 281.36, 399.39 176.2, 471.69 92.17 M218.77 387.42 C304.67 291.41, 386.99 195.36, 474.59 89.99 M219.86 386.03 C323.08 273.6, 425.79 156.61, 475.71 92.44 M226.77 387 C298.17 307.83, 367.37 223.51, 482.91 94.03 M225.58 386.5 C283.37 319.54, 342.4 250.98, 482.91 90.99 M230.81 386.73 C316.64 293.67, 397.69 201.54, 487.85 91.73 M230.28 386.48 C325.81 280.29, 416.81 175.79, 488.41 92.18 M234.37 386.59 C326.63 287.91, 410.27 186.8, 493.77 91.6 M236.86 386.23 C320.53 286.33, 405.25 188.26, 493.54 90.48 M241.17 388.49 C337.69 271.69, 434.41 160.54, 500.96 90.21 M240.77 387.08 C325.82 292.43, 410.29 197.95, 499.8 90.58 M248.33 385.42 C336.84 285.22, 425.93 183.06, 503.92 87.87 M246.62 387.29 C303.39 319.75, 361.64 255.96, 505.03 90.17 M254.41 385.04 C317.64 316.75, 374.33 249.96, 508.2 90.38 M253.35 386.77 C348.15 281.19, 440.19 172.15, 511.27 90.73 M257.13 384.95 C317.8 316.09, 375.68 253.2, 514.71 87.62 M256.85 387.56 C328.93 302.05, 400.89 221.28, 516.37 89.71 M261.47 386.95 C360.72 274.98, 451.76 164.39, 522.64 87.64 M262.97 386.97 C358.28 279.02, 453.44 168.93, 521.75 88.9 M268.71 385.58 C336.2 309.6, 398.55 235.91, 527.77 90.68 M267.68 386.59 C343.68 299.32, 417.35 211.79, 526.41 88.93 M272.09 386.01 C342.04 306.24, 410.8 226.35, 534.52 86.32 M273.69 386.9 C331.82 319.4, 391.56 249.51, 532.33 88.43 M280.08 385.1 C350.51 297.9, 428.63 208.62, 540.43 87.43 M279.48 386.37 C347.69 305.54, 414.16 226.37, 538.48 87.77 M282.44 387.56 C387.23 269.61, 487.49 154.7, 543.62 85.87 M284.78 385.95 C351.57 311.65, 419.36 234.92, 543.95 88.19 M290.53 387.93 C349.12 315.67, 407.42 251.41, 549.64 87.14 M289.8 386.73 C348.14 325.84, 401.75 262.84, 548.19 87.1 M293.57 387.45 C345.24 325.12, 401.41 266.99, 553.28 86.92 M295.4 385.95 C393.15 275.57, 487 165.51, 553.79 88.73 M298.95 385.19 C376.96 296.15, 456.86 208.38, 558.57 88.05 M300.02 386.13 C391.44 281.66, 483.19 173.66, 559.21 88.71 M306.85 385.82 C396.8 280.14, 485.37 177.19, 565.83 86.1 M304.53 386.56 C386.9 295.38, 465.32 205.62, 564.48 89.24 M309.15 386.08 C401.39 288.24, 486.45 185.72, 569.34 89.63 M311.38 385.46 C401.36 281.76, 490.81 176.53, 569.17 89.14 M314.7 387.15 C384.03 308.37, 450.17 228.64, 575.33 88.83 M315.65 385.29 C367.14 322.6, 418.99 262.74, 574.55 89 M320.6 385.73 C421.91 271.88, 523.18 155.7, 579.81 91.08 M322.66 385.76 C379.4 315, 441.92 245.97, 577.85 89.66 M328.29 386.42 C416.69 284.15, 507.67 174.95, 583.34 92.68 M327.47 386.73 C385.91 314.82, 445.66 246.12, 582.73 91.3 M333.11 383.53 C393.8 312.41, 454.72 237.52, 585.35 93.64 M332.48 385.9 C407.46 301.93, 479.77 218.06, 586.87 91.76 M336.57 386.8 C395.68 317.25, 456.01 246.2, 591.75 94.85 M339.21 385.58 C426.37 279.37, 515.53 176.08, 592.21 95.03 M342.04 388.04 C423.74 290.11, 502.09 198.09, 594.34 95.12 M343.99 384.87 C439.68 275.05, 533.41 168.02, 596.39 96.32 M350.17 384.07 C426.26 295.82, 504.08 204.73, 602.09 97.69 M347.91 385.94 C441.74 280.4, 534.08 176.28, 600.74 95.2 M352.43 383.93 C452.44 272.83, 554.53 157.93, 606.18 97.77 M353.14 386.56 C448.47 274.94, 544.91 165.08, 604.05 97.24 M358.4 385.64 C444.27 284.32, 534.45 183.88, 605.36 100.05 M359.57 385.07 C418.59 318.71, 477.48 249.72, 606.91 100.31 M364.99 383.9 C428.14 317.53, 487.71 247.84, 608.93 101.01 M365.22 385.5 C421.49 318.81, 477.45 255.78, 610.08 102.68 M369.22 385.12 C452.82 295.25, 531.33 204.05, 613.31 103.68 M369.89 385.94 C423.52 324.86, 476.56 265.59, 612.9 105.64 M375.89 386.33 C433.85 319.15, 492.79 247.97, 616.98 106.46 M375.83 385.91 C426.65 326.67, 479.96 268.5, 616.67 109.14 M380.75 386.14 C469.09 277.14, 563.22 168.75, 619.48 109.38 M380.95 385.12 C449.89 306.94, 519.15 228.4, 619.02 110.54 M385.69 384.85 C462.32 298.63, 542.94 208.44, 623.48 112.55 M384.46 385.65 C445.97 315.35, 510.78 240.25, 621.06 115.07 M388.22 384.86 C457.08 304.77, 525.64 228.15, 621.61 118.53 M391.78 386.99 C461.48 305.79, 532.88 222.4, 624.8 117.86 M397.38 385.44 C451.77 319.05, 511.59 254.14, 626.9 122.77 M395.03 385.42 C475.12 292.44, 557.02 200.93, 625.66 121.88 M399.73 385.14 C484.23 288.02, 567.43 191.22, 627.42 127.82 M400.99 386.53 C467.69 305.5, 538.56 224.91, 626.23 126.38 M406.47 386.84 C473.64 304.55, 544.34 220.56, 628.64 132.11 M406.24 386.66 C490.38 285.24, 576.6 186.23, 627.73 130.72 M411.14 387.76 C480.37 299.48, 556.73 220.49, 631.6 136.35 M412.38 385.97 C491.8 295.47, 569.7 204.05, 631.57 135.26 M416.58 389.63 C471.66 322.34, 527.78 260.47, 629.89 140.97 M416.51 387.95 C492.13 303.16, 570.18 215.56, 631.58 138.39 M420.94 385.28 C483.45 316, 543.5 247.46, 631.36 145.91 M421.62 388.39 C487.51 307.82, 556.79 228.73, 633.16 144.17 M423.68 385.96 C503.31 302.55, 577.59 211.5, 632.31 149.41 M426.8 388.26 C476.2 332.26, 525.44 276.83, 633.38 149.96 M430.64 388.79 C502.23 307.74, 563.95 230.52, 631.81 155.73 M432.25 388.51 C491.05 319.87, 552.01 250.77, 632.96 156.21 M438.04 386.81 C500.01 308.03, 567.53 235.01, 632.33 157.18 M437.84 386.31 C479.77 338.7, 518.89 292.04, 634.47 159.66 M439.46 389.89 C506.57 314.69, 572.78 237.61, 633.09 164.64 M442.29 386.68 C513.57 302.6, 585.45 220.61, 635.88 166.25 M444.75 389.33 C485.45 341.08, 531.81 288.62, 637.68 170.35 M447.49 387.1 C497 328.03, 548.27 264.85, 635.5 170.94 M449.74 387.73 C493.26 344.62, 528.83 297.61, 633.64 179.46 M452.09 389.51 C495.91 334.81, 540.58 284.46, 636.05 177.18 M455.02 386.64 C517.63 319.47, 574.61 256.96, 634.63 186.88 M455.93 387.01 C502.9 332.87, 552.61 277.06, 635.98 182.44 M461.72 390.51 C521.44 317.81, 585.62 244.95, 634.94 191.6 M462.26 388.89 C499.73 343.24, 544.12 296.27, 635.73 189.24 M466.98 385.93 C513.73 340.58, 558.51 286.26, 632.26 192.79 M467.46 387.83 C504.32 346.53, 536.47 309.41, 636.87 194.53 M472.33 390.84 C512.78 341.14, 556.08 288.47, 637.54 199.16 M472.79 388.97 C521.27 329.44, 570.65 273.59, 635.8 201.37 M478.97 388.19 C522.87 337.04, 566.11 285.1, 634.73 205.16 M476.86 388.38 C528.23 331.6, 578.82 274.23, 635.72 207.83 M482.44 389.84 C528.89 335.3, 579.43 276.03, 635.07 213.91 M484.03 387.75 C537.37 322.56, 593.05 258.91, 636.39 213.31 M490.92 392.46 C518.01 353.03, 552.34 310.36, 632.67 223.05 M489.7 389.33 C528.8 342.13, 566.72 296.28, 635.76 220.57 M496.33 392.17 C552.77 321.57, 604.18 258.21, 635.49 226.88 M491.98 390.43 C524.56 355.51, 552.97 320.25, 634.68 227.64 M496.69 389.44 C540.68 347.86, 573.79 304.85, 630.91 236.97 M498.42 387.49 C545.39 338.93, 586.67 288.06, 634.08 233.66 M502.49 390.77 C542.43 353.03, 575.42 315.07, 635.3 240.38 M504.18 387.38 C553.33 332.37, 603.07 276.01, 632.03 242.56 M508.2 386.63 C547.59 357.05, 576.8 314.43, 636.35 249.72 M509.06 386.96 C550.77 341.8, 593.43 292.04, 631.37 247.6 M512.03 390.82 C550.65 347.86, 589.27 302.83, 635.14 252.28 M514.78 390.26 C547.29 349.29, 578.38 310.72, 631.19 255.04 M520.15 389.55 C558.44 337.67, 603.55 291.14, 633.18 263.72 M520.01 389.99 C549.14 353.94, 579.89 323.28, 632.31 259.51 M522.17 390.49 C563.56 345.84, 598.36 302.72, 630.99 265.21 M524.55 387.9 C558.4 353.71, 590.16 314.41, 632.79 268.11 M533.32 387.78 C561.11 351.89, 595.33 311.21, 627.1 276.09 M532.05 387.22 C561.86 350.67, 593.13 315.83, 631.39 272.75 M538.27 387.04 C572.17 354.93, 596.43 316.25, 626.44 282.2 M534.26 389.22 C558.42 362.56, 579.67 335.82, 628.48 281.82 M541.31 386.35 C573.62 354.31, 609.68 314.92, 627.27 288.07 M541.81 389.69 C568.36 359.15, 589.5 330.54, 629.44 287.99 M550.18 385.26 C564.86 370.2, 583.27 347.31, 626.91 296.25 M548.42 387.41 C572.69 359.96, 601.08 329.07, 630.96 294.95 M554.23 389.78 C566.41 367.44, 584.54 348.47, 633.37 302.72 M553.68 388.7 C572.27 364.97, 589.79 343.8, 629.06 300.4 M556.9 388.65 C584.63 359.5, 610.12 331.37, 627.68 302.91 M559.95 387.13 C587.02 354.81, 618.38 321.48, 630.04 305.56 M567.98 384.58 C584.36 360.71, 611.62 332.13, 630.93 313.03 M565.12 386.3 C587.06 360.57, 611.7 332.53, 629.92 311.92 M573.3 385 C584.34 371.25, 597.82 350.4, 633.86 319.7 M568.86 386.06 C588.92 365.36, 605.92 347.81, 628.61 318.46 M575.7 384.55 C591.86 373.35, 596.15 359.5, 628.63 321.04 M574.03 384.55 C596.21 359.55, 620.03 337.79, 630.12 322.21 M582.71 385.58 C595.21 369.08, 605.65 356.46, 627.05 331.63 M582.91 386.13 C598.72 370.29, 610.33 355.61, 629.32 330.7 M591.62 381.68 C600.57 376.21, 611.38 362.88, 628.33 335.53 M590.69 384.48 C600.97 367.93, 612.53 354.92, 632.18 334.46 M593 385.15 C608.86 367.82, 615.08 363.55, 629.35 339.24 M597.61 381.5 C603.33 373.1, 610.44 363.61, 630.55 339.57 M603.18 379.26 C612.61 366.25, 622.53 357.63, 631.73 349.52 M601.81 379.14 C611.59 370.14, 617.42 362.85, 629.7 348.85 M615.66 374.21 C615.94 368.59, 620.13 365.57, 626.08 356.73 M611.58 374.79 C614.97 370.49, 619.72 368.85, 625.2 360.61 M167.08 382.44 C167.08 382.44, 167.08 382.44, 167.08 382.44 M167.08 382.44 C167.08 382.44, 167.08 382.44, 167.08 382.44 M177.25 383.09 C172.41 381.45, 164.51 378.18, 155.59 369.03 M175.49 387.17 C168.47 380.34, 162.88 374.11, 156.21 367.13 M184.28 384.07 C174.41 379.93, 163.7 373.32, 148.52 355.57 M184.08 386.24 C173.64 376.68, 162.56 367.95, 148.91 355.46 M186.82 385.22 C180.45 381.38, 169.41 371.75, 143.23 349.37 M189.71 387.1 C177.77 379.41, 168.69 367.54, 148.17 348.74 M190.46 386.83 C174.57 370.58, 165.5 357.12, 143.76 342.34 M192.4 384.69 C183.04 375.76, 168.92 364.13, 142.88 339.86 M202.25 388.83 C174.14 366.18, 153.61 343.43, 141.89 330.4 M199.2 386.82 C186.79 373.71, 175.52 362.38, 138.73 331.43 M203.69 382.55 C191.13 371.84, 177.01 356.84, 133.85 324.47 M204.66 386.4 C185.98 366.39, 163.62 350.51, 138.42 323.28 M215.79 384.99 C185.06 359.94, 163.21 342.31, 131.35 315.52 M211.38 384.21 C192.75 366.91, 174.71 349.72, 132.18 317.99 M215.99 382.56 C192.9 360.3, 174.72 340.27, 132.55 311.54 M218.43 385.12 C191.89 359.01, 160.52 334.94, 128.23 306.37 M227.23 381.32 C182.94 349.74, 146.05 317.81, 125.11 302.57 M225.93 384.89 C184.15 349.82, 144.32 316.87, 127.33 300.95 M226.89 382.73 C195.67 354.3, 165.01 328.89, 121.14 289.66 M231.49 386.37 C201.16 357.64, 171.37 332.94, 121.23 289.5 M235.84 385.91 C195.22 353.12, 157.76 318.46, 120.22 281.9 M234.77 386.27 C193.01 341.32, 145.24 301.32, 119.21 284.55 M243.4 387.4 C212.26 360.42, 184.4 332.33, 112.39 277.43 M241.91 383.41 C208.96 353.34, 173.7 324.14, 114.58 272.82 M248.39 383.38 C207.53 345.57, 165.9 309.42, 113.18 268.38 M250.09 385.47 C204.26 344.76, 160.7 306.53, 111.15 264.81 M256.06 385.43 C216.52 343.61, 172.36 307.05, 110.58 261.95 M255.98 385.25 C206.93 341.29, 155.66 299.36, 109.73 256.22 M262.9 382.98 C207.16 338.55, 147.55 289.33, 107.82 252.97 M260.36 383.5 C217.87 344.15, 171.99 304.28, 106.61 249.54 M263.33 382.41 C197.56 330.74, 133.51 268.77, 103.36 239.18 M268.02 384.57 C230.28 353.51, 197.66 323.2, 104.12 243.1 M270.35 385.59 C223.95 343.28, 178.41 301.99, 100.13 236.16 M273.9 384.6 C216.36 336.65, 158.18 287.13, 97.84 234 M277.57 383.54 C228.98 341.73, 183.09 299.64, 94.6 227.63 M277.7 382.43 C219.46 336.48, 162.66 286.57, 96.25 225.45 M282.49 386.04 C241.67 340.86, 194.55 303.64, 92.87 218.3 M284.47 385.37 C219.6 329.22, 156.37 270.89, 92.05 217.72 M289.01 386.84 C247.39 348.6, 206.63 310.77, 86.61 210.11 M290.8 382.32 C224.14 325.87, 159.22 267.04, 88.13 209.66 M296.2 386.64 C236.72 333.31, 181.73 278.86, 87.91 200.22 M296.47 382.88 C228.96 325.32, 160.39 266.36, 85.96 200.03 M302.2 385.79 C217.54 314.56, 134.51 240.13, 81.02 191.31 M304.06 384.63 C242.44 332.13, 181.62 278.98, 81.63 191.64 M308.51 383.8 C247.32 327.76, 189.9 272.3, 80.55 182.94 M307.82 383.37 C232.54 316.07, 156.45 248.72, 80.01 183.16 M312.66 385.02 C245.7 321.55, 175.73 257.81, 73.05 175.41 M315.75 384.77 C225.48 307.86, 135.85 230.95, 75.57 176.42 M322.22 386.03 C262.21 328.55, 199.37 277.45, 72.97 168.29 M319.78 383.37 C225.71 302.46, 126.98 216.86, 72.73 166.64 M329.14 384.96 C241.31 314.16, 159.68 237.25, 70.01 161.32 M326.61 383.29 C264.75 331.18, 202.88 277.01, 69.91 160.48 M334.03 384.8 C263.48 320.99, 191.56 262.47, 64.5 150.97 M333.5 382.59 C252.19 319, 171.77 249.99, 66.21 150.66 M337.5 385.7 C275.96 323.83, 203.52 266.93, 60.15 141.67 M339.34 385.01 C260.42 311.91, 177.87 243.61, 62.67 144.05 M345.94 383.51 C282.46 333.75, 218.5 277.46, 61.08 133.72 M345.14 383.04 C274.58 323.37, 202.63 262.07, 59.32 134.47 M350.01 382.93 C284.79 325.99, 214.42 263.46, 54.83 126.8 M351.43 384.1 C265.26 303.83, 175.98 227.97, 56.76 126.55 M360.71 386.35 C240.41 283.88, 121.05 178.76, 52.76 118.42 M357.95 385.19 C289.13 328.7, 220 268.55, 52.99 119.09 M363.42 383.08 C269.54 300.08, 175.48 221.01, 48.72 111.26 M364.06 383.24 C288.31 315.68, 209.85 247.34, 49.56 109.06 M371.8 384.73 C282.86 308.45, 189.87 231.03, 44.44 102.5 M370.37 383.53 C245.23 269.74, 116.37 159.75, 45.97 100.97 M377.67 385.95 C300.15 315.02, 221.4 245.7, 41.6 95.19 M376.93 385.14 C279.96 297.5, 180.63 209.85, 41.32 94.29 M382.58 384.22 C313.75 324.39, 243.71 264.26, 39.48 84.36 M383.93 385.53 C275.71 287.76, 166.56 192.77, 39.37 85.13 M389.39 384.7 C292.52 304.36, 196.5 220.32, 36.76 75.37 M390.44 384.76 C247.89 264.89, 106.91 142.72, 36.01 76.68 M396.37 386.93 C287.25 292.03, 180 199.56, 32.97 70.08 M395.67 385.55 C271.05 279.73, 147.66 172.39, 32.36 68.02 M402.69 384.82 C313.38 306.75, 223.72 230.42, 29.59 59.79 M403.31 385.13 C294.3 292.24, 188.78 199.02, 28.14 60.56 M409.42 385.42 C297.89 292.49, 187.21 198.51, 24.51 51.37 M408.96 386.38 C260.19 253.61, 111.99 125.7, 24.47 51.81 M414.12 387.27 C268.59 259.04, 118.79 127.32, 22.96 45.09 M414.75 386.74 C300.22 287.37, 188.86 189.08, 21.6 44.35 M421.78 386.31 C288.93 272.34, 152.29 154.54, 19.6 34.18 M421.89 387.01 C267.54 255.75, 112.53 120.84, 18.42 34.99 M425.99 386.57 C273.56 255.08, 124.5 123.93, 15.66 25.85 M427.89 386.38 C295.18 272.52, 163.99 160.55, 15.05 26.63 M432.4 385.7 C349.95 312.54, 260.89 237.43, 10.58 17.75 M433.71 385.73 C337.88 303.81, 239.32 217.27, 10.6 19.3 M439.4 385.77 C333.85 293.32, 224.22 198.33, 6.37 9.52 M440.25 387.46 C319.12 282.55, 200.75 178.96, 7.38 10.67 M445.51 388.34 C323.57 285.72, 200.52 177.95, 1.87 -1.65 M445.99 387.52 C340.39 294.1, 236.21 202.58, 0.14 -0.13 M453.02 386.17 C301.93 260.09, 154.03 131.83, 9.81 2.67 M453.6 386.54 C340.46 294.45, 230.77 198.9, 10.55 3.34 M459.65 387.62 C314.25 257.12, 168.27 133.21, 19.46 5.23 M459.76 387.26 C345.21 290.12, 227.44 189.31, 20.84 6.12 M466.06 386.69 C332.42 269.07, 201.37 152.57, 31.09 9.44 M465.76 387.12 C326.79 268.11, 190.09 148.63, 30.44 8.8 M470.73 387.38 C305.4 247.92, 143.22 103.99, 41.72 12.76 M472.08 388.42 C298.54 241.24, 127.25 92.05, 39.97 12.28 M477.52 389.7 C362.88 290.06, 247.19 189.27, 48.52 17.05 M479.44 387.8 C333.83 264.05, 189.79 137.23, 49.61 15.57 M484.08 388.46 C384.61 302.6, 284.11 217.16, 58.74 19.75 M484.93 387.95 C365.06 284.09, 243.89 178.66, 60.85 19.94 M492.62 388.11 C339.8 257.39, 189.93 127.45, 70.35 21.58 M491.07 388.69 C337.61 254.13, 183.27 120.51, 69.69 22.37 M497.63 388.05 C362.72 276.9, 228.86 159.16, 78.7 27.22 M496.42 388.45 C341.77 253.35, 185.05 118.29, 79.55 26.15 M502.81 387.23 C381.23 281.68, 259.88 174.28, 89.59 30.17 M502.81 389.14 C407.77 304.69, 311.19 219.58, 90.13 29.03 M510.65 388.03 C394.12 286.21, 277.9 186.45, 99.95 33.15 M509.47 388.93 C386.22 284.89, 264.62 180.11, 100.26 32.69 M516.85 387.44 C422.89 306.39, 329.73 223.77, 110.89 36.11 M515.24 388.11 C363.61 254.77, 211.04 121.61, 109.57 35.68 M521.46 386.65 C371.33 255.19, 225.05 128.07, 118.39 40.17 M521.56 387.64 C412.64 293.13, 303.67 199.6, 120.17 39.23 M526.55 388.69 C399.86 274.51, 271.16 162.78, 129.14 42.5 M528.28 388.6 C448.33 322.26, 368.71 253.1, 129.92 42.31 M534.56 388.76 C434.01 300.86, 338.33 217.17, 138.4 46.68 M533.45 387.54 C414.78 281.2, 295.7 177.08, 138.87 45.75 M539.53 387.92 C405.63 274.65, 270.14 159.26, 150.27 51.33 M540.34 388.72 C420.91 281.49, 302.15 177.9, 150.1 49.12 M545.42 387.25 C390.6 259.14, 239.21 126.51, 159.42 49.97 M546.77 388.94 C393.06 254.17, 240.21 121.61, 157.72 50.79 M549.63 388 C446.83 295.85, 339.77 204.05, 167.42 52.55 M550.8 387.42 C443.74 292.67, 334.68 197.9, 166.12 53.6 M555.12 387.93 C440.22 287.07, 323.73 186.06, 174.31 57.11 M556.28 387.17 C437.31 284.4, 317.72 180.86, 174.98 55.99 M561.62 386.95 C442.96 283.12, 321.47 176.05, 185.04 59.55 M562.23 386.46 C446.55 283.13, 329.26 181.41, 183.96 58.73 M567.4 386.06 C468.17 301.1, 364.68 214.29, 194 61.38 M567.65 385.9 C474.31 306.49, 382.38 226.06, 192.89 60.08 M572.15 384.82 C470.33 293.08, 364.07 203.54, 201.35 61.43 M572.59 384.56 C443.11 276.06, 316.57 165.55, 200.48 62.17 M578.05 386.04 C499.28 315.4, 419.41 249.45, 210.98 63.81 M578.99 384.79 C453.81 275.42, 330.62 168.5, 209.94 64.53 M582.36 383.23 C442.99 265.33, 305.74 146.97, 217.25 66.19 M583.06 383.32 C462.81 279.28, 338.96 172.47, 217.24 65.6 M587.34 384.04 C496.3 304.4, 400.22 220.28, 223.68 65.69 M588.29 383.11 C471.03 280.48, 350.86 177.16, 224.63 65.77 M590.96 382.15 C500.66 303.54, 412.77 227.91, 231.62 67.72 M592.7 380.62 C512.23 312.13, 429.81 241.13, 232.35 67.84 M598.91 379.53 C471.34 273.16, 346.23 161.29, 240.33 71.45 M596.94 379.94 C470.15 265.45, 340.25 153.86, 240.28 69.47 M602.31 376.71 C480.49 273.53, 360.79 170.77, 247.36 69.98 M601.23 377.89 C480.51 273.78, 358.1 167.91, 248.22 70.78 M604.84 375.15 C524.81 300.88, 437.71 226.5, 254.93 71.76 M604.05 375.27 C483.7 269.25, 361.24 162.33, 254.84 72.9 M609.82 372.71 C503.22 285.57, 399.73 194.21, 263.26 73.95 M608.34 374.71 C471.23 256.81, 332.14 137.16, 263.4 74.61 M614.23 373.09 C513.92 288.29, 412.77 198.85, 271.25 74.25 M613.77 371.72 C541.58 311.04, 471.81 248.08, 271.26 75.64 M615.73 371.8 C542.29 308.44, 468.43 245.95, 280.84 76.48 M616.06 370.96 C516.49 285.15, 417.38 198.77, 279.51 76.81 M619.81 367.23 C528.69 286.29, 436.33 207.56, 286.92 77.87 M619.39 367.29 C546.06 301.21, 472.32 237.38, 286.57 78.86 M622.48 364.04 C503.95 257.32, 382.01 153.79, 294.34 78.95 M622.94 364.49 C521.12 279.6, 421.32 191.47, 295.34 79.16 M626.15 359.23 C495.42 251.49, 366.99 140.97, 303.95 82.44 M624.5 361.82 C537.14 281.96, 450.05 205.09, 302.46 82.51 M624.32 359.42 C551.94 291.59, 474.83 224.26, 308.7 82.63 M625.4 356.99 C523.94 267.76, 421.07 178.32, 308.86 82.96 M627.85 354.12 C552.6 287.22, 478.57 219.26, 319.33 82.99 M629.49 353.4 C555.08 289.46, 479.99 225.43, 318.17 83.52 M629.96 349.81 C523.65 257.52, 416.32 164.02, 329.07 88.24 M628.46 350.19 C568.56 295.79, 505.4 241.78, 326.18 86.3 M629.72 347.08 C556.61 280.38, 481.83 217.19, 332.33 85.74 M630.44 344.54 C520.47 250.3, 412.05 156.72, 333.76 87.75 M634.36 343.67 C563.9 287.78, 496.75 226.38, 342.85 89.14 M632.52 340.38 C571.6 287.29, 512.91 236.13, 341.2 88.47 M634.07 338.21 C571.01 287.16, 505.63 230.26, 349.8 88.15 M631.66 336.55 C548.28 257.67, 461.19 183.47, 347.83 89.21 M632.15 333.25 C519.88 234.63, 412.3 140.86, 353.97 90.82 M631.8 331.96 C533.15 245.16, 433.37 159.97, 356.05 91.59 M629.92 325.82 C574.74 279.38, 523.66 233.79, 361.03 93.27 M632.77 326.09 C555.99 258.33, 477.89 192.85, 363.09 91.48 M633.65 320.45 C580.93 273.93, 524.48 230.8, 368.38 91.84 M631.35 320.14 C557.33 255.5, 481.08 189.44, 369.84 92.31 M633.45 315.45 C572.56 257.28, 506.49 204.6, 376.82 92 M631.08 313.53 C547.59 237.71, 463.39 166.26, 377.6 93.7 M630.86 310.33 C581.93 267.4, 534.29 221.14, 380.52 94.97 M631.1 309.58 C580.91 263.21, 526.72 217.37, 382.9 93.34 M630.37 303.94 C575.66 251.01, 520.38 200.37, 390.67 94.32 M632.25 303.01 C571.72 250.2, 514.07 200.07, 389.7 92.67 M631.07 297.8 C541.12 222.04, 453.29 145.92, 398.01 95.26 M631.11 299.92 C556.38 235.5, 480.05 167.09, 396.26 94.87 M633.5 294.48 C580 245.63, 524.7 197.61, 400.19 94.02 M632.44 294.17 C583.1 251.56, 531.93 207.4, 403.34 95.22 M630.63 289.13 C563.72 231.17, 496.76 172.09, 411.38 93 M631.62 287.58 C582.33 247.56, 535.65 202.97, 411.05 96.73 M633.23 285.14 C559.89 225.88, 491.23 162.34, 416.88 93.2 M630.32 283.35 C579.98 234.49, 528.9 189.02, 416.77 93.97 M631.01 279.67 C548.66 210.23, 468.88 142.26, 421.37 95.81 M633.13 277.43 C575.07 229.3, 519.92 177.83, 422.46 96.08 M631.27 274.68 C584.17 236.9, 539.97 198.61, 425.54 92.17 M631.63 273.01 C576.3 222.7, 518.86 174.65, 428.24 93.25 M634.25 265.09 C591.06 228.39, 548.24 190.11, 430.43 94.51 M633.94 269.2 C584.72 224.37, 538 184.59, 433.42 93.5 M634.13 260.76 C589.83 223.69, 546.45 184.57, 439.96 96.55 M631.8 261.22 C577.88 216.67, 521.94 169.65, 438.5 93.06 M634.1 259.17 C589.83 219.6, 552.41 183.69, 443.98 95.72 M634 257.65 C581.14 213.99, 527.47 167.82, 444.02 93.02 M636.27 255.15 C580.94 211.17, 531.27 163.51, 446.21 90.99 M633.34 252.9 C594.11 220.5, 558.95 189.06, 449.33 90.99 M630.69 244.96 C592.45 212.7, 544.06 173.67, 454.29 93.88 M634.35 247.53 C575.44 195.9, 517.97 146.03, 454.6 92.21 M631.05 244.22 C574.93 195.42, 516.3 145.73, 462.3 92.78 M635.89 243.18 C570.02 186.61, 506.78 132.63, 459.57 90.92 M637.55 238.42 C582.59 187.87, 525.17 144.49, 466.05 90.1 M636.34 237.04 C579.4 195.01, 529.5 148.28, 465.74 91.6 M631.62 234.14 C588.26 195.55, 538.04 147.11, 472.92 93.66 M635.76 233.35 C583.33 188.16, 534.53 144.7, 471.62 89.98 M633.89 229.45 C589.5 184.69, 535.31 140.26, 476.96 93.16 M634.64 227.49 C582.63 182.64, 526.69 134.99, 478.31 91.53 M637.84 225.07 C577.54 168.31, 518.62 118.89, 482.14 92.09 M636.23 221.07 C585.16 183.67, 537.78 143.27, 484.76 91.91 M640.11 214.17 C589 179.96, 543.7 136.99, 491.51 91.61 M634.25 216.32 C590.05 178.05, 543.04 139.43, 489.95 88.42 M634.1 210.07 C590.91 171.19, 540.02 124.28, 493.93 86.57 M637.62 214.69 C594.08 179.8, 554.66 142.47, 494.78 89.59 M639.04 204.26 C589.25 164.05, 530.9 112.35, 498.23 87.37 M637.31 207.91 C592.59 173.13, 547.8 133.7, 501.73 89.83 M632.7 205 C586.87 159.4, 539.56 121.23, 504.87 92.21 M635.53 203.13 C594.48 167.77, 552.44 130.75, 504.66 90.07 M637.27 197.93 C606.87 172.41, 584.47 149.43, 508.77 84.35 M635 195.61 C607.06 167.85, 576.25 143.52, 511.42 87.51 M639.67 187.71 C605.61 167.04, 566.48 139.21, 518.34 85.06 M634.7 190.83 C604.1 164.68, 576.5 135.91, 518.38 89.05 M632.3 185.03 C599.43 149.24, 563.8 124.26, 526.43 86.66 M634.14 183.96 C597.81 152.41, 562.29 118.17, 520.93 88.85 M637.78 177.64 C602.5 152.71, 579.38 133.25, 529.37 89.49 M637.56 179.48 C598.15 141.93, 557.64 110.22, 527.98 85.79 M637.18 171.92 C614.21 158.61, 589.67 132.31, 537.96 82.91 M637.77 177.2 C611.23 154.78, 584.21 129.34, 532.44 84.98 M639.05 168.71 C598.19 142.81, 566.54 110.77, 539.72 81.67 M636.54 168.57 C604.83 141.7, 574.49 114.3, 541.01 86.64 M632.41 165.45 C607.11 140.05, 588.14 125.65, 545.65 86.18 M637.19 163.36 C613.14 146.57, 590.66 128.34, 544.39 86.8 M631.75 156.03 C616.38 142.79, 594.21 128.7, 554.44 89.59 M637.05 157.98 C608.86 137.8, 585.4 116.08, 553.04 84.99 M636.52 155.66 C618.84 136.09, 600.48 125.51, 560.77 87.4 M634.45 152.87 C610.7 135.19, 588.2 111.09, 556.94 86.25 M633.4 149.24 C611.39 130.24, 590.3 109.15, 564.03 88.48 M634.51 145.38 C608.27 124.37, 583.09 101.61, 565.85 84.72 M629.78 143.05 C609.31 120.51, 589.16 101.51, 564.83 81.39 M634.1 141.91 C612.79 125.14, 594.26 110.03, 569.26 86.43 M634.28 131.05 C620.03 124.04, 609.83 115.19, 579.78 90.66 M629.86 132.78 C615.42 121.89, 599.77 106.69, 578.75 86.08 M630.46 127.32 C610.79 109.9, 595.56 96.42, 582.9 89.96 M627.43 125.09 C613.52 115.29, 598.39 102.15, 584.83 88.71 M620.87 114.87 C612.97 106.87, 601.29 98.58, 595.72 92.28 M620.98 116.11 C614.35 107.03, 603.91 98.99, 594.56 92.37" stroke="#868e96" stroke-width="0.5" fill="none"></path><path d="M-2.64 -2.28 C18.38 48.12, 99.33 240.38, 126.46 303.8 C153.59 367.21, 145.86 364.82, 160.14 378.19 C174.43 391.56, 179.03 382.49, 212.16 384 C245.28 385.51, 294.74 387.55, 358.88 387.26 C423.01 386.97, 551.48 399.67, 596.96 382.25 C642.44 364.84, 629.42 329.27, 631.77 282.75 C634.13 236.22, 652.62 134.73, 611.09 103.1 C569.55 71.48, 455.86 100.41, 382.56 93.01 C309.26 85.62, 234.79 74.49, 171.28 58.71 C107.77 42.94, 30.18 7.87, 1.48 -1.62 M1.12 2.66 C21.89 53.37, 97.68 244.12, 125.13 307.19 C152.59 370.27, 151.34 367.97, 165.86 381.12 C180.38 394.27, 180.58 386.16, 212.27 386.11 C243.96 386.06, 291.46 381.75, 356.02 380.83 C420.58 379.91, 554.69 396.13, 599.64 380.58 C644.6 365.03, 624.11 333.7, 625.76 287.52 C627.4 241.34, 650.54 135.18, 609.51 103.49 C568.47 71.8, 452.5 104.82, 379.53 97.37 C306.56 89.92, 234.43 75.07, 171.68 58.81 C108.94 42.55, 31 9.34, 3.05 -0.18" stroke="#1e1e1e" stroke-width="1" fill="none"></path></g></g><mask></mask></svg>