<svg version="1.1" xmlns="http://www.w3.org/2000/svg" viewBox="0 0 883.7700909572668 473.6842029448944" width="883.7700909572668" height="473.6842029448944" filter="invert(93%) hue-rotate(180deg)">
  <!-- svg-source:excalidraw -->
  
  <defs>
    <style class="style-fonts">
      
    </style>
    
  </defs>
  <g stroke-linecap="round"><g stroke-opacity="0.8" fill-opacity="0.8" transform="translate(36.08792857688968 181.4113078242608) rotate(0.35693169236047595 413.70251754300807 49.02155260349264)" fill-rule="evenodd"><path d="M0 0 C0 0, 0 0, 0 0 M0 0 C0 0, 0 0, 0 0 M0.36 8.72 C2.96 5.19, 5.05 -0.49, 6.21 -2.25 M-2.45 8.71 C1.01 5.98, 2.84 2.76, 6.26 -1.97 M-6.17 11.54 C-1.73 13.73, 4.48 5.37, 15.61 1.29 M-2.74 16.38 C4.24 8.36, 9.05 3.63, 11.65 -2.55 M-5.44 23.62 C2.69 16.74, 10.52 5.45, 20.33 -0.14 M-2.29 21.34 C0.88 16.72, 7.5 10.55, 19.1 -1.34 M-1.83 34.05 C0.93 20.45, 9.76 8.71, 20.94 -0.53 M-5.34 31.93 C-0.61 24.55, 8.24 15.33, 24.54 -2.98 M-8.6 35.85 C9.13 23.51, 20.1 8.17, 32.11 -2.39 M-6.94 37.47 C5.41 23.5, 19.32 7.74, 30.69 -4.25 M-4.99 48.25 C12.42 25.12, 29.32 6.76, 34.22 -9.51 M-7.4 46.03 C1.09 34.5, 12.96 22.3, 35.18 -7.18 M-5.24 49.96 C5.28 34.86, 26.39 17.74, 41.02 -6.46 M-8.83 53.2 C3.17 38.38, 14.43 26.5, 42.71 -7.04 M-7.49 64.41 C10.35 40.48, 23.83 19.3, 51.26 -6.61 M-11.57 62.84 C5.61 42.3, 24.34 22.18, 49.17 -8.84 M-8.25 69.48 C9.84 34.94, 36.06 9.22, 57.74 -12.58 M-12.09 68.32 C12.79 39.87, 40.35 10.67, 55.23 -8.31 M-10.61 78.54 C7.77 49.23, 34.84 18.11, 62.96 -8.31 M-14.76 77.03 C14.58 45.47, 44.62 13.11, 62.45 -8.42 M-14.68 82.18 C0.43 61.39, 19.94 42, 67.45 -11.23 M-13.74 83.64 C14.47 48.96, 49.95 10.02, 66.11 -12.13 M-14.52 93.43 C3.93 71.06, 21.17 46.54, 74.11 -12.58 M-17.46 90.79 C3.55 72.71, 21.95 49.28, 72.08 -11.11 M-19.14 97.08 C24.18 53.82, 61.13 9.8, 79.85 -9.38 M-17.07 97.95 C4.07 76.38, 24.81 53.04, 80.94 -14.31 M-18.87 103.35 C22.93 63.29, 63.99 10.15, 84.64 -12.92 M-16.39 106.54 C6.16 76.79, 32.54 45.02, 85.53 -12.87 M-17.66 116.96 C22.58 68.93, 54.63 26.35, 91.11 -16.76 M-19.61 112.56 C7.78 81.04, 35.26 51.01, 91.07 -16.68 M-22.14 117.32 C26.12 71.47, 73.47 16.89, 100.32 -16.27 M-19.9 122.21 C8.62 91.82, 31.25 59.85, 99.36 -14.38 M-19.83 125.83 C23.25 73.58, 73.58 21.24, 103.27 -16.6 M-21.15 126.76 C15.28 85.34, 54.32 43.45, 104.92 -17.82 M-23.44 137.09 C13.22 90.74, 47.61 51.35, 113.73 -17.2 M-21.86 133.6 C3.04 102.8, 32.65 72.27, 112.35 -18.96 M-22.11 142.85 C18.92 92.84, 67.58 44.06, 113.92 -19.52 M-21.23 143.63 C31.34 79.84, 85.82 19.06, 117.31 -19.03 M-21.14 147.61 C11.28 105.23, 50.05 60.41, 125.06 -16.76 M-23.12 146.95 C24.95 92.41, 74.97 34.64, 121.98 -19.99 M-24.69 158.81 C15.08 113.85, 46.1 69.46, 132.21 -18.4 M-23.59 155.63 C28.49 97.62, 76.68 42.99, 128.38 -18.75 M-28.07 165.01 C12.1 121.18, 50.39 78.81, 134.28 -22.58 M-23.13 162.9 C27.19 97.47, 81.8 35.15, 135.5 -21.69 M-22.17 167.39 C38.04 98.11, 105.45 20.27, 143.05 -23.43 M-22.91 167.81 C34.67 99.66, 95.79 31.43, 140.32 -21.18 M-25.61 172.66 C18.54 126.45, 53.29 82.16, 150.11 -24.6 M-24.23 174.76 C39.31 100.88, 102.23 28.9, 148.03 -23.19 M-22.66 182.21 C43.62 107.35, 113.01 31.18, 156.44 -22.12 M-24.86 182.22 C37.23 105.14, 103.81 31.89, 152.39 -23.88 M-26.26 185.37 C20.71 140.59, 63.1 85.16, 159.54 -24.1 M-23.65 188 C44.01 109, 112.11 28.65, 158.93 -26.87 M-25.48 195.09 C17.64 143.06, 62.12 93.94, 165.74 -25.04 M-24.29 193.39 C42.15 110.3, 114.21 30.04, 166.19 -27.35 M-26.16 200.91 C29.46 129, 84.12 67.94, 171.97 -25.35 M-22.76 198.91 C40.35 124.34, 107.16 48.77, 172.86 -28.54 M-23.11 203.58 C50.31 127.4, 116.11 49.8, 181.17 -27.96 M-21.95 201.76 C30.27 139.92, 85.94 77.89, 178.25 -29.8 M-21.6 205.57 C52.84 119.94, 127.59 34.57, 182.66 -30.3 M-22.79 207.19 C31.31 148.35, 78.82 92.54, 186.15 -30.89 M-23.68 215.11 C37.22 140.82, 101.37 74.24, 190.16 -33.81 M-22.44 212.16 C53.24 123.8, 129.42 38.94, 191.55 -30.18 M-22.49 217.49 C30.42 155.43, 84.72 91.58, 199.36 -30.69 M-19.32 218.44 C41.96 149, 101.84 79.43, 198.8 -31.27 M-19.54 220.94 C40.32 153.01, 100.18 86.16, 204.31 -35.49 M-18.29 222.17 C52.71 136.2, 125.46 53.27, 203.77 -33.54 M-16.92 225.91 C51.36 142.63, 125.55 56.28, 208.71 -36.28 M-17.55 227.37 C38.81 159.34, 96.85 92.79, 211.31 -35.85 M-13.94 228.46 C33.3 171.1, 86.61 107.92, 216.6 -35.39 M-15.9 229.6 C54.92 149.7, 125.09 69.46, 216.05 -36.72 M-13.1 235.48 C61.38 148, 136.28 64.83, 223.6 -39.19 M-13.03 233.71 C78.33 126.62, 171.16 20.08, 225.22 -38.28 M-11.79 236.61 C66.61 153.77, 145.47 60.69, 228.68 -38.67 M-11 238.05 C40.89 179.32, 89.95 122.97, 231.66 -39.67 M-7.57 239.61 C41.7 187.36, 91.17 129.61, 236.5 -43.34 M-8.9 241.72 C71.6 151.16, 152.8 56.32, 237.45 -40.87 M-6.98 243.62 C65.44 160.63, 138.12 79.28, 245.28 -43.26 M-6.76 243.04 C85.07 132.44, 179.72 24.7, 244.26 -42.53 M-3.91 248.22 C75.97 159.63, 152.66 71.21, 251.28 -43.76 M-3.16 247.6 C78.47 154.4, 158.17 63.93, 250.5 -46.25 M-1.28 250.14 C68.6 171.9, 131.02 99.73, 259.44 -45.92 M0.47 250.23 C95.99 140.72, 191.99 32.21, 260.05 -48.18 M5.67 250.38 C88.2 155.22, 174.8 57.53, 266.45 -49.41 M5.06 251.65 C105.02 131.18, 207.77 12.42, 265.88 -49.07 M7.33 253.28 C95.33 151.97, 184.7 48.1, 274.48 -52.55 M8.07 252.58 C104.58 146.86, 196.1 38.47, 273.22 -51.8 M11.79 256.94 C114.69 129.52, 223.81 7.56, 280.99 -55.17 M10.91 255.19 C82.93 175.28, 151.43 96.27, 280.32 -55.53 M367.98 -156.16 C371.25 -158.89, 376 -163.39, 379.18 -171.6 M366.62 -155.66 C371.12 -159.28, 373.22 -163.23, 379.42 -167.84 M15.6 258.31 C120.66 132.39, 227.98 6.37, 288.99 -56.16 M14.86 255.46 C114.87 139.38, 216.04 23.68, 287.67 -55.34 M353.92 -138.2 C363.05 -146.47, 374.42 -154.57, 385.75 -171.71 M355.02 -138.08 C369.97 -152.16, 379.08 -162.95, 389.52 -171.21 M19.85 258.89 C80.91 187.95, 139.67 116.01, 299.73 -62.89 M18.69 257.32 C88.9 183.17, 154.79 105.9, 298.76 -64.26 M348.5 -117.21 C366.57 -141.11, 380.41 -160.88, 391.6 -175.75 M347.4 -116.48 C357.3 -130.69, 368.24 -145.54, 394.27 -172.81 M22.44 258.06 C118.17 150.96, 214.12 44.67, 319.87 -78.93 M23.06 258.65 C132.82 136.24, 243.13 10.91, 319.17 -79.9 M332.02 -98.8 C349.86 -113.44, 358.8 -126.02, 397.12 -174.6 M332.98 -96.41 C351.93 -118.15, 371.35 -138.7, 399.77 -173.69 M27.04 261.47 C161.95 103.37, 298.39 -54.16, 402.68 -170.56 M27.74 260.58 C134.88 138.08, 242.7 13.85, 402.7 -170.91 M30.94 262.9 C140.17 129.41, 253.74 0.82, 406.29 -166.55 M32.37 262.06 C143.33 132.4, 255.67 2.05, 406.52 -167.92 M36.89 264.08 C181.79 92.83, 327.9 -72.01, 408.91 -164.19 M36.53 263.22 C154.82 123.22, 272.94 -12.45, 408.6 -165.28 M42.08 263.34 C166.1 125.02, 286.28 -15.01, 410.52 -161.4 M41.37 263.65 C175.8 109.18, 311.45 -47.22, 412.39 -162.68 M44.52 263.2 C134.99 162.47, 223.08 64.51, 413.89 -160.34 M46.32 263.74 C123.76 173.28, 204.18 81.37, 415.41 -159.64 M50.19 262.92 C164.3 134.31, 277.28 4.4, 416.99 -156.55 M51.68 265.04 C171.57 126.87, 290.13 -9.16, 417.9 -157.64 M55.13 264.19 C168.15 136.2, 283.85 1.17, 420.78 -153.05 M56.88 264.55 C179.6 125.14, 302.99 -17.15, 419.53 -153.63 M58.97 266.89 C153.05 159.74, 245.18 52.6, 423.52 -151.77 M59.82 266.29 C147.42 169.28, 234.12 71.56, 421.96 -150.83 M65.74 264.85 C150.33 168.61, 240.26 67.63, 424.04 -146.91 M65.89 265.62 C154.81 163.34, 244.89 59.46, 424.31 -147.52 M69.1 267.52 C204.41 114.31, 336.32 -37.74, 427.57 -143.67 M70.19 265.97 C206.72 110.82, 345.11 -48.01, 427.58 -144.77 M75.55 266.95 C150.46 183.39, 224.68 99.04, 428.56 -141.07 M74.51 267.98 C196.88 125.4, 319.49 -15.1, 428.87 -140.64 M79.53 268.72 C165.71 168.67, 252.8 69.77, 431.87 -137.14 M80.33 268.21 C169.94 160.21, 260.77 56.7, 431.57 -137.2 M83.96 268.85 C219.78 112.94, 359.57 -44.87, 435.58 -134.12 M85.42 267.93 C157.02 183.94, 230.62 98.42, 434.76 -133.08 M88.81 267.99 C177.08 173.29, 260.52 74.95, 435.51 -130.11 M90.31 269.43 C214.36 124.05, 339.35 -17.82, 436.36 -129.79 M95.66 270.19 C219.12 127.03, 342.97 -19.92, 439.48 -127.29 M95.04 269.81 C180.62 164.16, 269.46 61.7, 437.97 -125.67 M100.76 267.34 C216.41 133.61, 331.28 -0.47, 439.75 -122.99 M100.39 269.24 C237.92 111.92, 373.31 -45.38, 441.49 -123.19 M104.03 268.95 C202.76 159.6, 300.74 51.72, 443.23 -121.09 M105.86 268.53 C212.98 145.27, 317.79 24.65, 442.78 -119.78 M111.73 270.09 C208.55 160.97, 303.69 52.24, 444.06 -117.3 M111.01 268.87 C213.59 148.04, 317.22 27.28, 445.99 -115.67 M117.37 267.58 C212.8 159.59, 309.74 46.48, 447.99 -113.94 M115.7 268.62 C181.5 188.9, 249.19 111.79, 448.18 -112.86 M120.87 269.93 C188.31 190.59, 255.76 113.1, 448.78 -109.14 M120.33 269.83 C197.44 180.4, 273.32 94, 449.48 -109.35 M125.6 267.58 C231.26 148.43, 336.46 25.67, 452.62 -105.23 M126.19 269.14 C247.81 123.7, 371.93 -17.95, 452.12 -106.16 M132.63 268.27 C210.34 176.97, 284.8 89.39, 453.8 -100.39 M131.49 268.86 C231.74 153.18, 332.69 35.5, 453.98 -102.34 M138.15 270.37 C231.29 158.03, 326.31 48.13, 455.43 -96.95 M137.23 269.28 C232.87 157.35, 328.3 47.78, 456.62 -98.53 M143.97 267.82 C238.96 164.22, 331.54 54.72, 457.92 -95.65 M143.12 269.08 C244.29 149.95, 348.07 32.66, 458.63 -94.79 M149.09 269.8 C247.94 153.46, 347.87 38.65, 460.27 -90.49 M149.33 267.45 C222.89 182.68, 296.14 99.13, 460.67 -92.62 M154.5 268.22 C238.22 173.71, 323.82 76.8, 464.95 -87.27 M154.61 267.4 C225.76 181.8, 300.4 96.28, 463.72 -87.84 M160.62 268.07 C245.48 165.57, 334.35 62.22, 466.01 -85.22 M159.09 267.94 C240.39 175.56, 321.61 81.84, 466.27 -85.27 M164.85 268.42 C243.11 181.55, 319.97 91.8, 469.11 -82.34 M164.14 267.3 C239.49 177.96, 314.29 91.2, 468.38 -81.73 M170.83 268.07 C253.52 171.67, 335.72 77.36, 472.98 -78.48 M170.92 266.91 C257.4 169.15, 343.34 68.32, 471.37 -79.98 M175.03 267.52 C273.44 155.58, 371.5 45.14, 473.03 -75.46 M176.2 267.73 C281.81 145.43, 388.74 22.95, 474.7 -76.16 M182.74 268.3 C289.27 144.97, 395.31 22.66, 476.51 -73.62 M181.11 267.21 C242.87 191.62, 307.14 116.72, 476.01 -73.21 M186.39 267.5 C287.6 151.68, 390 32.65, 480.4 -68.55 M187 266.93 C298.15 140.38, 407.48 15.05, 479.55 -70.66 M190.85 267.59 C305.8 134.61, 421.48 4.16, 480.97 -68.34 M192.14 266.97 C299.49 139.58, 406.5 15.86, 483.45 -68.4 M198.78 267.87 C307.67 144.24, 411.44 21.89, 487.03 -64.06 M196.35 266.62 C291.21 154.37, 388.31 41.43, 486.8 -64.58 M202.82 267.57 C263.66 196.95, 329.72 124.01, 490.1 -62.78 M203.86 267.41 C280.27 172.83, 363.78 79.67, 489.74 -61.58 M208.11 267.93 C274.9 190.77, 337.19 119.42, 491.19 -59.15 M207.95 266.89 C287.55 175.8, 363.64 85.8, 492.99 -61.58 M213.48 266.61 C289.96 174.99, 369.69 85.84, 497.82 -59.72 M214.57 264.8 C301.53 165.22, 387.97 67.13, 496.56 -58.88 M220.72 264.78 C315.98 154.21, 413.89 39.83, 499.02 -54.42 M219.47 266.09 C285.28 187.96, 354.6 109.34, 499.85 -56.4 M223.16 265.83 C331.5 142.17, 433.18 24, 502.82 -54.3 M225.89 264.66 C330.81 141.64, 437.41 19.21, 502.22 -54.48 M229.43 264.68 C324.46 159.14, 419.02 46.4, 505.98 -52.34 M231.02 265.82 C315.75 168.05, 403.62 68.36, 506.21 -53.27 M235.22 263.03 C326.21 156.22, 415.5 53.15, 511.73 -49.81 M235.73 265.7 C319.29 174.46, 401.75 80.5, 510.38 -50.22 M241.39 264.21 C300.71 198.29, 357.22 129.51, 515.43 -50.71 M241.99 264.59 C341.27 151.28, 438.65 38.44, 514.32 -49.35 M246.45 263.09 C335.26 165.17, 426.97 57.6, 518.07 -49.18 M247.71 265.38 C306.16 191.47, 369.97 117.97, 519.66 -49.22 M254.03 265.12 C349.52 152.29, 445.83 39.25, 522.44 -47.43 M252.13 264.38 C322.14 180.38, 394.18 98.03, 524.23 -48.02 M255.77 264.1 C358.27 154.4, 459.26 42.44, 525.82 -43.91 M256.56 265.44 C360.23 148.04, 462.6 30.7, 528.03 -45.03 M260.93 264.72 C349.73 162.5, 437.78 58.09, 529.66 -43.52 M261.47 265.43 C356.91 159.54, 449.09 53.14, 532.34 -44.57 M264.78 266.1 C376.03 142.14, 483.91 21.03, 533.96 -42.58 M265.73 265.7 C359.63 158.92, 452.27 51.51, 536.59 -43.46 M269.95 267.11 C359.31 167.09, 446.67 68.49, 538.99 -44.14 M270.79 266.36 C351.05 172.38, 431.24 77.69, 540.3 -42.24 M278.68 265.02 C378.76 150.19, 477.07 28.78, 544.71 -43.82 M277.49 266.74 C375.56 155.2, 473.66 42.38, 544.99 -42.17 M281.62 266.74 C349.71 187.96, 415.48 107.42, 549.33 -42.14 M281.86 267.57 C352.88 185.7, 427.46 100.35, 550.82 -40.39 M286.43 269.14 C355.63 186.33, 429.16 103.09, 555.58 -41.35 M286.27 268.67 C356.56 188.56, 428.5 107.37, 554.32 -40.09 M292.3 270.98 C368.18 176.89, 444.52 92.25, 561.14 -40.93 M291.89 269.54 C396.09 145.83, 502.32 25.4, 558.93 -39.76 M297.54 270.22 C398.71 155.85, 501.32 38.21, 564.95 -38.75 M295.58 268.67 C370.95 185.22, 446.17 98.47, 563.95 -39 M300.6 271.47 C390.14 168.95, 478.22 63.42, 570.76 -39.83 M299.93 270.68 C360.86 205.14, 417.59 138.38, 568.37 -38.74 M305.91 271.55 C369.69 191.41, 438.47 118.3, 572.14 -36.19 M306.2 271.55 C381.9 184.54, 458.91 94.89, 573.79 -39.06 M311.61 271.35 C394.82 176.93, 475.74 81.49, 579.86 -39.13 M311.09 270.29 C395.28 176.53, 477.61 83.04, 578.98 -38.53 M317.2 273.16 C418.63 155.13, 519.71 40.63, 584.29 -37.06 M314.75 270.36 C404.43 165.75, 497.9 60.22, 584.5 -36.59 M320.09 270.52 C404.44 172, 492.69 73.66, 589.08 -37.97 M319.72 271.46 C388.96 196.16, 453.58 121.1, 589.13 -36.49 M326.53 272.65 C391.17 197.73, 457.87 115.74, 591.81 -36.92 M324.57 271.62 C418.1 166.33, 509.29 60.09, 592.85 -37.37 M332.98 270.09 C391.92 199.15, 456.97 123.37, 600.01 -36.44 M331.96 272.28 C384.01 205.25, 442.83 140.86, 597.73 -37.22 M335.02 270.24 C432.63 164.29, 529.92 48.65, 603.01 -36.04 M335.79 271.62 C438.23 155.53, 538.2 40, 604.3 -35.98 M343.61 271.68 C440.49 156.52, 541.65 43.32, 610.06 -34.96 M342.13 271.73 C401.29 201.79, 460.17 134.05, 607.96 -36.33 M347.18 271.81 C446.47 156.16, 549.08 42.15, 613.27 -34.96 M347.06 272.75 C442.75 161.83, 535.95 55.41, 613.11 -35.7 M350.63 271.4 C446.98 162.91, 542.77 55.56, 616.94 -34.2 M351.67 272.63 C427.38 182.9, 502.56 96.8, 618.45 -33.72 M355.17 273.38 C449.75 164.95, 545.88 56.5, 622.64 -34.49 M357.57 272.33 C460.34 149.82, 565.63 30.5, 624.49 -35.28 M361.87 269.55 C427.91 195.55, 493.18 121.11, 627.49 -35.13 M361.91 271.23 C421.8 202.83, 481.16 135.3, 627.67 -33.6 M369.21 270.63 C455.85 170.07, 543.77 65.9, 631.44 -35.74 M368.55 272.27 C430.33 198.26, 491.07 126.83, 632.39 -33.28 M372.12 270.6 C451.31 186.62, 522.4 98.92, 640 -34.55 M374.06 270.63 C447.48 183.37, 524.77 96.97, 638.43 -33.37 M377.5 272.35 C474.63 168.3, 563.65 61.49, 644.77 -31.16 M378.91 272.37 C437.29 204.02, 495.49 138.81, 644.01 -32.6 M385.35 269.81 C457.51 184.1, 535.96 94.43, 648.5 -33.95 M384.69 271.85 C473.47 172.84, 558.55 74.34, 648.91 -32.51 M390.86 273.68 C448.16 206.42, 506.94 140.22, 654.57 -31.36 M389.63 272.61 C469.39 178.95, 551.21 85.78, 653 -31.54 M396.86 271.12 C472.64 181.71, 548.24 96.91, 656.25 -30.66 M394.72 271.54 C500.7 153.61, 607.15 31.3, 659.4 -32.61 M397.98 273.94 C494.1 165.86, 588.08 59.31, 662.01 -29.31 M399.31 270.82 C470.37 189.19, 541.21 104.8, 664.04 -30.48 M406.03 274.48 C473.62 189.53, 543.65 111.1, 666.84 -31.27 M404.27 271.76 C505.36 151.89, 607.76 34.53, 667.78 -30.61 M410.31 272.12 C497.19 169.3, 587.21 68.91, 673.05 -31.77 M410.91 271.76 C488.86 181.05, 567.01 89.88, 672.73 -29.69 M414.51 272.73 C473.99 203.48, 534.94 136.51, 679.62 -29.16 M415.29 272.43 C512.21 156.05, 614.97 40.18, 678.59 -30.07 M421.58 271.5 C517.58 158.1, 615.18 45.69, 684.95 -32.25 M420.49 271.29 C517.16 160.03, 617.38 46.88, 683.5 -29.28 M426.79 274.28 C509.62 176.71, 597.76 77.33, 689.06 -30.76 M425.38 271.38 C504.59 183.51, 579.63 96.36, 688.77 -29.16 M430.27 270.52 C488.55 210.24, 542.83 150.48, 694.56 -28.26 M430.74 272.2 C516.86 173.95, 601.05 76.1, 693.25 -28.46 M434.7 272.89 C529.56 168.04, 617.35 63.17, 696.37 -26.94 M437.15 272.59 C491.14 209.2, 547.66 144.01, 697.08 -28.16 M444.27 271.92 C495.22 213.34, 547.1 149.07, 700.28 -28.2 M441.96 270.61 C531.06 166.99, 621.38 62.91, 702.26 -27.83 M448.56 271.12 C508.72 202.54, 567.45 133.6, 704.96 -28.55 M446.28 271.11 C523.8 182.28, 598.99 96, 706.33 -26.44 M453.5 273.57 C534.54 174.95, 617.43 79.34, 709.96 -27.12 M452.01 271.91 C529.21 182.68, 606.79 92.66, 713 -25.53 M456.13 271.28 C536.68 177.11, 619.43 83.73, 716.02 -26.21 M457.41 271.26 C522.56 196.34, 590.34 118.17, 716.65 -25.52 M461.87 273.06 C532.38 194.9, 603.39 111.84, 720.66 -22.62 M463.19 272.47 C519.9 209.93, 575.16 146.65, 721.21 -24.17 M468.37 270.82 C555.09 178.03, 637.26 81.24, 726.39 -24.49 M468.18 272.94 C535.65 188.17, 607.31 107.45, 725.65 -24.47 M473.61 272.24 C571.54 161.36, 668.57 48.46, 731.68 -24.09 M473.07 271.08 C567.06 169.13, 656.92 65.26, 731.37 -23.92 M478.15 271.47 C575.64 161.37, 673.44 53.26, 735.82 -21.44 M478.39 271.55 C553.18 185.44, 627.99 99.15, 735.8 -22.26 M483.38 273.48 C573.49 166.34, 666.38 62.97, 741.24 -21.24 M483.01 272.09 C580.3 159.17, 679.03 46.26, 739.59 -20.96 M487.8 270.05 C585.08 164.7, 677.77 57.29, 745.02 -20.82 M490.01 271.9 C562.13 185.44, 640.13 98.83, 743.1 -20.79 M492.66 271.93 C568.36 183.74, 644.67 96.18, 749.18 -19.44 M493.9 273.07 C545.55 212.56, 595.63 152.5, 747.73 -19.78 M499.42 273.2 C597.85 162.98, 695.63 50.1, 752.94 -15.65 M499.53 272.75 C569.5 189.3, 641.84 106.23, 753.05 -17.85 M505.37 274.85 C578.03 191.9, 649.34 110.97, 754.92 -19 M503.86 272.39 C576.62 186.81, 649.1 104.5, 756.94 -17 M511.96 271.62 C588.19 178.87, 667.52 90.62, 760.88 -15.04 M509.3 273.8 C569.83 201.36, 630.11 131.38, 761.31 -15.06 M514.15 272.01 C608.35 166.69, 700.74 54.3, 762.29 -15 M515.83 272.64 C602.9 171.12, 693.81 67.12, 765.16 -12.98 M519.88 274.66 C573.19 213.84, 624.3 152.22, 769.86 -13.51 M519.16 272.54 C617.48 161.43, 716.9 49.81, 767.44 -10.8 M523.53 274.93 C588.29 202.87, 650.38 132.79, 771.43 -8.24 M525.24 274.88 C607.23 177.9, 693.36 80.77, 770.79 -11.16 M530.27 274.6 C609.91 181.89, 688.54 95.67, 774.14 -8.76 M529.24 273.65 C622.22 165.41, 714.74 60.09, 775.93 -8.77 M535.63 273.36 C616.26 187.68, 695.12 97.07, 777.88 -4.78 M534.05 275.58 C626.95 176.16, 715.59 72.94, 779.38 -5.16 M538.75 274.74 C609.77 192.96, 679.32 115.01, 780.18 -0.55 M539.72 274.17 C592.7 216.44, 642.55 157.04, 781.23 -2.17 M548.04 276.23 C608.68 207.81, 663.5 137.47, 782.23 -1.33 M546.65 273.73 C634.28 175.16, 723.86 72.33, 784.15 -0.59 M548.36 276.33 C629.88 179.25, 712.85 87.09, 788.43 2.19 M550.47 274.24 C636.62 175.92, 722.79 76.98, 788.24 2.42 M556.46 274.64 C609.63 211.44, 666.78 144.39, 791.84 3.75 M555.37 275.79 C632.75 191.34, 707.88 104.33, 791.74 5.42 M560.23 277.28 C626.23 200.77, 692.5 123.87, 795.63 9.71 M561.33 273.59 C625.63 200.46, 695.02 121.91, 792.78 7.95 M564.54 276.38 C631.53 191.22, 700.23 115.32, 795.98 10.58 M567.51 275.33 C650.85 174.6, 740.05 72.84, 797.97 9.63 M573.22 272.89 C640.65 186.76, 716.09 104.18, 796.78 12.98 M571.88 275.24 C636.92 200.42, 700.66 129.13, 798.9 13.81 M579.04 276.79 C629.04 218.1, 679.57 159.22, 802.08 15.82 M577.47 276.71 C655.87 188.38, 735.11 97.49, 800.92 16.07 M583.16 276.75 C638.9 213.3, 693.3 149.35, 806.78 19.63 M580.87 274.91 C627.18 225.28, 673.13 173.89, 804.04 18.48 M588.81 278.11 C632.77 224.85, 680.8 175.56, 808.3 25.57 M587.15 276.22 C634.18 226.26, 679.91 172.5, 807.08 23.19 M591.26 276.03 C643.83 216.82, 694.93 160.38, 808.07 28.14 M592.2 276.32 C675.01 177.96, 759.55 81.96, 809.37 27.43 M595.88 274.55 C684.58 176.12, 768.07 82.7, 809.61 27.98 M595.7 275.95 C678.79 183.06, 758.96 89.11, 811.64 30.62 M602.74 275.49 C652.87 218.03, 702.74 161.48, 812.53 33.38 M602.32 277.73 C674.33 196.87, 744.98 117.9, 813.19 35.26 M604.89 279.65 C679.04 192.13, 754.15 104.97, 815.61 39.65 M606.93 275.94 C660.65 215.66, 717.52 150.24, 815.44 36.99 M614.98 276.79 C651.21 226.97, 694.3 180.2, 814.91 42.46 M612.79 277.06 C690.46 189.74, 765.27 104.09, 817.72 40.78 M615.42 279.02 C668.32 221.95, 716.28 164.23, 817.75 46.12 M618.98 276.47 C680.84 200.95, 745.69 128.62, 817.16 46.26 M622.73 278.74 C679.24 212.08, 735.38 146.89, 820.23 52.63 M622.35 278.33 C667 227.72, 713.56 174.3, 818.04 50.21 M625.41 276.57 C700.41 189.27, 778.28 107.41, 819.56 53.99 M627.6 277.43 C697.75 193.75, 771.68 109.77, 821.8 56.22 M634.69 277.21 C678.82 228.27, 716.97 178.08, 825.14 57.27 M631.58 277.71 C685.08 216.51, 738.52 154.67, 823.34 61.42 M635.66 279.17 C688.94 218.51, 744.46 155.99, 825.99 63.34 M636.75 278.76 C692.06 215.33, 749.29 150.16, 823.17 63.87 M642.27 279.67 C692.87 215.6, 752.37 155.8, 824.85 68.89 M643.9 277.44 C697.49 220.6, 748.56 159.58, 823.59 67.75 M651.63 277.73 C694.51 222.7, 744.82 165.26, 829.02 75.46 M648.51 276.74 C717 208.01, 779.75 131.7, 825.33 73.93 M654.02 276.58 C691.68 231.98, 729.45 189.03, 827.15 75.59 M655.19 278.58 C690.7 234, 727.41 190.81, 826.53 77.85 M661.22 280.14 C698.78 234.97, 732.76 190.25, 828.6 82.58 M659.27 276.26 C696.91 228.55, 740.13 181.1, 828.23 83.04 M667.49 275.65 C715.05 223.4, 761.26 163.91, 827.41 90.57 M664.68 278.46 C704.27 228.77, 747.48 177.96, 830.09 89.26 M671.2 274.99 C710.03 232.63, 746.57 192.46, 828.3 92.85 M671.46 276.36 C711.63 232.2, 748.78 189.98, 831.45 94.95 M673.73 278.33 C728.27 214.63, 787.58 144.27, 827.64 101.23 M674.63 277.62 C713.39 237.9, 746.3 198.34, 831.87 99.39 M682.75 276.3 C732.35 216.11, 783.97 154.57, 828.54 104.8 M680.74 276.17 C719.3 233.09, 759.89 186.85, 830.4 103.95 M683.81 278.92 C731.47 222.1, 779.13 169.57, 832.62 111.36 M687.34 276.92 C730.61 225.51, 776.71 172.4, 830.98 110.08 M689.98 279.08 C727.53 232.61, 765.96 188.82, 830.2 116.47 M691.88 279.21 C724.2 238.89, 755.93 201.23, 830.11 114.49 M696.41 277.71 C723.95 244.64, 749.46 212.24, 832.41 119.39 M698.08 277.53 C747.52 217.44, 795.76 159.45, 831.85 121.74 M703.4 274.54 C754.96 222.88, 806.46 161.28, 834.08 125.91 M701.26 280.24 C737.6 240.24, 773.4 197.24, 831.59 129.16 M710.77 274.23 C738 239.23, 767.14 205.58, 831.45 129.42 M708.77 277.25 C735.77 246.54, 766.58 208.67, 832.48 130.52 M709.88 278.67 C759.78 226.94, 803.8 169.96, 834.18 137.75 M713.73 279.1 C755.75 230.06, 800.08 184.1, 833 138.57 M717.7 276.26 C749.76 239.56, 788.53 196.25, 833.89 141.27 M716.92 277.9 C761.07 232.75, 801.76 183.13, 836.37 142.82 M720.65 274.85 C747.15 249.68, 773.86 220.21, 838.58 150.55 M723.21 279.81 C746.85 250.62, 771.53 222.75, 833.41 151.05 M725.45 274.02 C763.86 232.99, 800.33 192.97, 838.27 158.65 M729.02 276.71 C769.81 226.54, 811.61 181.66, 836.65 155.05 M732.9 276.34 C767.66 235.83, 809.07 188.12, 834.02 160.09 M736.54 277.05 C756.84 250.78, 781.53 221.61, 833.86 161.13 M741.46 274.81 C775.05 233.95, 810.13 193.32, 834.93 169.84 M741.82 276.74 C761.57 252.23, 782.28 229.34, 837.57 164.62 M749.65 274.92 C785.27 233.23, 816.78 188.97, 839.11 170.38 M745.65 276.74 C781.6 235.59, 815.37 195.23, 834.51 172.37 M751 275.88 C770.02 256.61, 791.12 231.68, 839.38 177.87 M753.1 275.78 C779.66 242.38, 808.92 205.67, 835.81 176.47 M759.1 277.11 C778.63 248.77, 799.49 225.36, 841.61 184.2 M758.91 276.33 C779.3 248.53, 802.7 223.05, 835.88 183.81 M761.86 276.27 C781.19 252.87, 798.95 235.59, 841.02 188.26 M762.43 274.14 C783.79 251.73, 800.44 233.15, 837.16 190.78 M767.91 270.69 C796.29 244.8, 814.9 218.16, 833.84 192.35 M770.39 271.22 C793.37 247.92, 813.75 225.32, 838.34 195.28 M777.59 270.73 C797.26 246.31, 818.36 221.86, 839.68 203.78 M776.43 272.61 C790.68 254.01, 807.55 233.57, 837.14 201.72 M783.25 266.92 C800.29 255.61, 814.03 237.5, 839.18 209.57 M781.91 269.09 C799.71 252.45, 817.51 231.78, 836.55 207.3 M793.63 270.29 C806.01 246.56, 824.36 227.52, 837.03 217.21 M792.79 264.98 C806.6 250.85, 816.53 235.68, 836.31 214.22 M802.16 263.58 C808.16 256.85, 816.94 241.22, 834.29 226.42 M796.43 264.86 C810.26 253.34, 819.38 237.97, 833.71 224.95 M817.15 249.68 C819.41 251.85, 818.9 248.67, 826.71 238.62 M812.24 253.52 C818.72 247.95, 823.02 243.81, 826.47 239.24 M-7.46 243.32 C-7.46 243.32, -7.46 243.32, -7.46 243.32 M-7.46 243.32 C-7.46 243.32, -7.46 243.32, -7.46 243.32 M8.49 254.61 C9.18 247.5, 2.75 243.54, -12.53 230.81 M10.09 254.96 C5.26 248.64, 0.48 242.13, -14.09 234.1 M25.52 259.34 C16.75 247.24, 1.19 242.6, -16.77 223.56 M21.84 257.22 C5.94 245.38, -6.94 234.76, -20.75 221.79 M32.18 260.21 C15.8 252.33, 7.9 242.2, -16.37 216.16 M33.18 262.44 C12.72 244.02, -4.67 227.02, -19.5 216.94 M35.5 264.92 C18.23 241.95, 0.1 231.32, -23.34 209.02 M37.78 261.59 C18.24 242.85, -3.86 224.55, -21.82 210.02 M47.03 261.85 C25.09 250.02, 3.67 228.76, -22.44 207.48 M46.85 263.99 C17.04 238.78, -8.47 213.71, -23.38 202.66 M56.5 260.43 C24.86 242.92, 0.06 219.22, -23.72 196.25 M54.33 262.24 C30.15 248.11, 9.72 229.03, -25.08 198.54 M61.11 266.14 C23.32 232.65, -5 204.06, -27.5 192.43 M61.7 263.64 C29.04 236.8, 0.93 212, -26.58 188.96 M68.55 269.46 C38.65 239.64, 5.93 212.67, -24.87 182.42 M68.43 263.77 C43.82 245.96, 19.38 223.09, -23.23 186.19 M75.94 266.92 C37.07 233.59, 2.46 206.53, -27.74 183.06 M74.52 267.9 C36.76 235.05, 3.57 205.49, -24.65 181.17 M80.92 266.09 C54.97 246.76, 29.65 223.23, -27.02 172.53 M82.98 268.57 C54.02 240.85, 23.86 212.22, -25.45 174.88 M91.8 265.9 C40.36 229, -4.71 191.64, -20.91 168.02 M89.6 266.37 C64.07 245.52, 41.3 222.3, -25.95 168.49 M92.13 270.97 C67 249.34, 43.94 230.48, -25.15 162.12 M94.92 268.8 C65.17 240.95, 31.78 217.25, -26.96 164.3 M100.44 265.26 C58.57 228.53, 16.47 189.75, -24 157.07 M99.51 268.4 C71.31 245.91, 45.79 221.29, -25.28 160.46 M105.46 269.81 C60.45 228.06, 21.2 186.02, -20.49 157.2 M106.68 268.98 C60.09 229.05, 19.66 190.13, -24.44 155.88 M112.15 270.34 C76.8 243.73, 46.75 214.02, -22.46 152.48 M112.04 269.74 C69.92 231.53, 30.61 192.67, -25.22 150.37 M119.18 268.92 C85.93 242.27, 60.88 211.98, -23.51 147.62 M116.44 269.44 C82.98 236.01, 50.81 209.25, -23.11 146.13 M125.71 268.31 C68.47 223.44, 14.19 170.25, -19.04 140.35 M124.25 267.22 C94.62 244.63, 64.55 216.8, -20.85 138.62 M133.77 269.56 C77.44 217.13, 18.09 169.86, -22.64 138.08 M129.77 268.81 C95.27 235.07, 55.55 203.12, -21.48 134.12 M138.41 269.97 C75.94 217.24, 20.86 160.54, -18.84 129.98 M136.69 268.71 C72.69 214.29, 12.19 159.21, -20.64 131.8 M139.9 271.03 C105.53 236.34, 70.9 198.91, -20.1 129.26 M144.66 267.23 C92.34 228.01, 44.96 182.31, -22.29 124.94 M151.29 267.05 C88.88 214.33, 30.57 160.04, -22.56 118.16 M149.73 269.25 C87.32 210.02, 21.18 155.44, -21.09 119.92 M157 267.28 C96.9 212.68, 30.98 157.1, -20.81 119.11 M154.63 268.75 C111.94 232.83, 67.91 195.42, -20.37 116.84 M161.96 270.51 C90.67 207.73, 23.62 145.16, -21.02 114.09 M161.54 269.07 C124.68 235.08, 83.39 202.6, -18.22 112.64 M164.02 267.91 C102.89 213.28, 41.75 158.28, -19.39 109.54 M165.38 268.31 C97.01 207.27, 29.88 148.95, -17.19 107.93 M174.34 264.42 C132.02 234.17, 90.06 196.48, -18.48 100.95 M173.72 268 C95.87 203.37, 24.71 138.47, -17.25 102.58 M177.39 266.57 C141.17 228.07, 100.66 196.89, -15.72 98.9 M176.15 265.11 C117.23 209.69, 56.97 157.68, -14.96 99.04 M181.04 268.51 C120.63 206.57, 58.93 152.34, -12.82 95.78 M183.79 267.56 C115.87 208.93, 48.31 149.74, -16.3 92.45 M189.28 266.72 C114.66 202.48, 32.85 136.24, -13.57 88.56 M189.31 266.99 C119.51 203.54, 49.91 145.6, -15.8 89.99 M196.9 267.49 C138.45 218.67, 81.49 168.68, -14.88 83.38 M196.07 266.46 C131.91 207.65, 70.37 154.69, -13.5 84.48 M202.37 263.91 C133.71 205.22, 65.04 145.45, -11.29 79.52 M202 266.77 C146.34 217.68, 90.31 167.92, -12.97 79.86 M207.65 268.52 C120.26 190, 33.48 119.33, -9.96 75.18 M208.52 265.83 C141.45 207.7, 74.43 149.48, -12.23 75.12 M212.68 266.3 C158.46 211.54, 101.57 166.77, -13.66 67.16 M211.81 266.66 C146.72 207.66, 76.54 145.86, -12.07 70.58 M221.4 264.93 C159.79 215.47, 103.66 167.86, -10.81 68.19 M220.28 264.69 C133.15 194.31, 49.54 121.34, -11.69 64.99 M224.23 266.17 C162.2 209.07, 105.22 159.57, -8.11 59.16 M224.65 264.59 C158.06 202.93, 89.03 144.22, -9.34 60.86 M228 262.34 C180.5 218.37, 128.51 177.05, -10.04 56.29 M230.69 264.72 C160.87 205.12, 95.01 145.3, -8.88 56.24 M237.39 265.69 C187.96 221.89, 135.44 176.43, -11.6 51.56 M237.56 264.44 C137.27 180.36, 38.42 94.64, -9.57 52.11 M242.18 262.51 C177.27 208.92, 108.64 155.04, -7.6 44.76 M241.52 263.66 C182.14 209.65, 121.35 158.74, -7.12 47.31 M249.63 264.18 C146.22 177.35, 46.47 90.36, -6.43 41.86 M248.23 263.86 C192.19 218.73, 136.93 170.67, -5.34 43.4 M252.56 264.82 C152.37 172.26, 49.58 78.29, -3.82 38.58 M254.3 264.83 C194.22 217.22, 138.44 167.2, -6.54 36.67 M262.22 265.45 C177.34 192.72, 91.38 113.68, -5.55 31.53 M261.27 264.65 C180.57 193.87, 98.53 123.74, -5.13 34.46 M268.53 267.68 C204.47 211.84, 141.21 158.3, -4.38 27.13 M267.21 264.53 C167.52 177.92, 64.56 88.93, -4.52 27.91 M276.02 268.08 C190.28 190.87, 105.45 119.52, -3.46 23.91 M275.83 265.75 C210.6 208.43, 147.03 155.3, -4.05 24.2 M283.94 266.5 C170.85 171.68, 65.5 77.65, -3.91 21.72 M282.04 268.06 C206.91 199.63, 133 134.72, -2.8 19.73 M291.4 266.41 C209.25 197.2, 131.5 127.65, -1.2 16.8 M288.96 268.45 C193.79 181.59, 96.33 97.67, -3.22 15.74 M298.47 267.51 C211.56 198.66, 128.45 122.53, -0.3 11.74 M296.32 268.6 C227.28 210.43, 161.85 153.51, -0.18 11.34 M302.42 268.31 C195.03 173.66, 83.91 77.1, 0.1 4.12 M303.63 270.12 C198.59 177.3, 93.98 85.01, -1.16 4.77 M311.5 271.61 C191.7 167.99, 71.6 63.94, 1.04 -0.75 M310.23 269.05 C191.48 169.08, 74.47 65.95, -0.17 1.47 M315.97 270.67 C218.39 186.97, 116.41 96.99, 2.99 -2.68 M317.32 271.51 C195.24 165.68, 75.44 60.07, 5.1 -0.51 M323.66 272.61 C214.72 175.71, 107.16 86.82, 10.78 -3.61 M323.31 270.79 C246.41 204.62, 170.18 136.73, 9.82 -0.79 M331.24 269.65 C224.82 179.4, 121.61 90.48, 15.29 -4.13 M329.91 271.66 C213 173.52, 100.36 74.19, 13.68 -3.79 M337.15 271.71 C263.57 208.07, 195.24 147.81, 21.1 -5.16 M335.18 270.98 C237.22 181.08, 134.9 93.8, 19.99 -2.8 M341.97 272.51 C232.74 174.59, 122.01 79.01, 26.96 -4.14 M342.31 271.62 C225.51 171.92, 109.66 70.65, 24.75 -4 M349.11 273.47 C245.43 184.34, 147.06 98.05, 27.78 -5.69 M347.19 272.15 C252.81 186.89, 159.41 106.96, 28.87 -4.47 M355.81 271.27 C238.52 173.21, 120.67 68.31, 35.18 -3.71 M354.75 271.85 C262.57 193.52, 171.63 114.22, 35.16 -6.23 M361.29 270.91 C260.75 186.39, 159.46 97.48, 38.6 -6.27 M361.3 271.28 C283.17 205.26, 205.91 139.59, 40.97 -6.79 M367.32 271.06 C298.82 213.02, 232.6 153.43, 45.32 -7.79 M365.48 270.59 C240.09 160.71, 115.24 52.29, 46.18 -7.14 M373.1 272.01 C264.9 178.41, 160.96 86.68, 50.25 -9.56 M371.3 271.39 C300.41 211.61, 229.24 151.06, 50.2 -8.62 M380.05 273.63 C295.77 201.1, 207.09 124.5, 56.24 -10.63 M377.86 270.81 C274.23 177.7, 167.8 86.5, 55.14 -10 M383.02 271.68 C296.96 192.01, 206.95 113.19, 59.26 -9.63 M385.08 270.55 C287.59 185.7, 194.85 104.31, 61.17 -11.08 M390.82 270.67 C266.57 164.06, 144.1 58.26, 64.36 -12.45 M390.98 271.25 C279.37 175.97, 164.73 76.07, 65.64 -9.74 M397.53 269.37 C298.14 186.95, 199.74 102.11, 72.45 -10.86 M396.03 270.83 C302.65 189.24, 210.38 108.66, 70.39 -11.37 M402.6 272.76 C273.32 163.41, 148.48 55.15, 74.12 -13.25 M402.18 270.44 C309.41 187.78, 215.1 106.17, 75.13 -11.81 M411.16 273.61 C294.14 176.02, 185.45 79.09, 81.74 -15.08 M408.82 270.69 C335.18 206.73, 260.36 141.14, 82.62 -12.92 M413.22 269.4 C303.97 177.65, 191.79 82.17, 87.74 -14.87 M414.38 270.25 C298.11 173.14, 182.78 72.74, 85.51 -13.58 M420.19 270.74 C307.01 170.62, 187.19 69.86, 91.16 -15.75 M421.82 270.64 C307.19 177.65, 196.24 80.43, 90.42 -15.14 M428.4 270.86 C325.5 187.97, 227.28 100.19, 96.85 -16.76 M426.53 270.37 C307.38 165.73, 187.6 61.87, 96.57 -16.58 M434.99 269.75 C326.14 181.59, 220.18 88.21, 102.57 -16.37 M433.77 270.94 C365.27 209.32, 295.45 148.12, 100.99 -17.67 M438.15 271.97 C326.51 171.36, 208.82 73.82, 105.07 -18.13 M440.46 271 C338.17 181.6, 235.46 92.89, 106.2 -18.42 M444.75 271.05 C376.84 209.18, 306.59 149.5, 111.36 -18.03 M444.84 271.08 C366.12 201.83, 287.65 132.64, 113.24 -18.19 M450.19 270.02 C327.47 161.5, 205.68 55.37, 117.88 -20.01 M451.88 272.27 C329.91 165.79, 205.6 59.06, 116.66 -18.95 M458.5 271.28 C376.9 203.49, 298.56 137.4, 121.41 -20.9 M457.32 270.46 C325.13 159.45, 196.83 48.49, 123.02 -19.91 M462.13 272.41 C369.99 191.65, 279.54 108.73, 126.34 -21.13 M462.91 272.18 C357.87 176.26, 250.81 84.54, 128.11 -20.07 M469.78 272.04 C337.2 158.49, 206.45 44.69, 131.61 -21.64 M470.34 270.99 C394.63 204.16, 316.38 136.3, 133.51 -20.81 M474.59 270.29 C347.12 161.87, 221.35 52.23, 137.88 -23.3 M474.96 271.9 C369.51 179.64, 265.39 90.24, 137.61 -21.15 M480.8 272.5 C379.04 185.53, 275.93 93.05, 142.82 -22.6 M482.17 269.83 C375.04 177.74, 268.32 84.09, 142.4 -22.95 M487.95 270.86 C416.85 207.06, 347.81 149.55, 147.08 -24.78 M487.63 270.56 C388.62 190.34, 290.79 104.48, 147.51 -24.28 M494.81 272.79 C423.09 208.57, 351.7 147.38, 153.47 -23.88 M494.51 270.61 C365.19 154.45, 235.45 41.29, 153.05 -24.58 M499.22 270.42 C402.09 186.11, 302.83 103.27, 158.39 -25.58 M501.38 271.65 C368.64 157.55, 236.84 43.21, 158.59 -25.85 M506.44 273.21 C384.76 169.24, 260.98 63.05, 161.75 -25.38 M506.62 270.91 C386.65 166.06, 264.31 59.94, 163.07 -26.08 M515.2 271.97 C380.81 151.76, 247.34 37.04, 169.83 -27.37 M513.39 271.45 C403.71 176.31, 292.71 80.65, 169.51 -26.27 M519.32 271.83 C385.58 155.31, 252.89 39.15, 175.46 -28.55 M519.36 271.46 C398.71 170.19, 279.42 66.53, 174.39 -27.85 M527.92 271.76 C429.68 192.55, 334.93 108.45, 179.24 -27.8 M525.55 272.52 C385.35 149.82, 245.53 30.03, 179.07 -29.88 M532.95 274.45 C396.53 152.19, 258.35 34.33, 184.01 -29.73 M531.8 272.84 C443.56 197.62, 356.15 121.18, 184.17 -31.1 M540.61 273.8 C431.24 180.58, 321.59 86.26, 189.52 -30.52 M539.79 273.51 C427.65 174.92, 316.49 78.28, 189.59 -30.39 M546.62 272.14 C454.78 196.65, 363.25 119.96, 193.94 -30.58 M545.01 273.65 C415.64 159.1, 287.84 47.24, 193.86 -31.56 M552.49 274.89 C444.61 178.97, 338.8 87.8, 198.83 -32.1 M552.59 272.98 C427.12 160.28, 299.54 48.69, 198.99 -33.46 M559.44 274.73 C467.41 189.88, 374.17 109.28, 203.27 -33.12 M558.3 274.26 C428.31 164.21, 298.53 52.53, 204.21 -34.89 M566.18 275.76 C476.64 196.93, 392.6 124.15, 208.78 -36.21 M564.29 274.88 C421.98 153.55, 283.11 31.87, 209.02 -35.65 M570.35 273.97 C457.92 177.51, 341.9 77.24, 213.5 -35.44 M571.13 274.89 C461.96 180.15, 351.79 85.37, 212.5 -35.92 M576.88 273.84 C455.48 168.57, 330.49 61.23, 217.16 -39.09 M577.13 273.98 C480.13 187.98, 382.28 102.07, 217.93 -37.31 M585.11 276.26 C448.63 160.18, 319.85 43.74, 222.3 -39.04 M583.11 275.67 C496.56 197.06, 407.3 120.33, 223.26 -38.63 M590.26 273.84 C507.36 201.47, 422.35 124.73, 228.59 -40.4 M589.83 275.67 C504.76 194.94, 414.25 118.28, 227.61 -38.89 M595.19 274.09 C481.83 175.01, 367.28 76.06, 234.15 -41.67 M597.42 274.87 C514.27 205.12, 432.71 133.7, 232.27 -39.98 M604.6 277.01 C469.61 155.62, 335.82 38.55, 236.97 -43.06 M603 276.37 C475.78 170.01, 350.93 61.61, 238.28 -40.92 M609.27 277.56 C490.32 173.53, 370.82 67.99, 242.89 -44.38 M608.67 275.86 C513.86 192.41, 421.54 111.84, 242.43 -42.31 M614.74 274.64 C478.88 155.94, 336.33 31.93, 245.69 -43.53 M615.64 275.97 C473.63 152.5, 333.72 31.26, 246.11 -44.67 M621.97 276.34 C494.37 163.05, 368.13 51.66, 251.77 -45.29 M621.94 276.67 C486.59 158.57, 351.89 40.77, 250.83 -45.23 M628.82 275.28 C496.68 166.07, 368.97 54.08, 255.88 -46.92 M628.58 277.57 C491.81 157.08, 353.74 38.54, 255.69 -46.85 M634.6 277.35 C499.16 160.71, 364.85 45.41, 261.82 -47.71 M635.5 277.01 C505.53 163.51, 376.91 51.34, 261.19 -48.84 M640.53 276.74 C514.97 167.87, 383.82 54.24, 264.43 -48.7 M640.31 276.83 C524.38 181.45, 412.26 83.55, 264.22 -49.95 M647.41 276.96 C516.07 161.66, 385.03 48.62, 269.12 -52.57 M647.11 277.46 C504.09 147.81, 357.95 20.04, 269.22 -51.41 M652.37 275.93 C554.42 192.76, 458.45 111.1, 274.61 -53.96 M653.31 277.89 C518.01 157.57, 381.46 38.22, 273.96 -53.24 M658.75 276.38 C545.33 176.67, 433.72 78.96, 278.36 -55.5 M659.36 276.58 C559.7 188.66, 458.61 101.2, 277.97 -54.21 M666.73 277.02 C514.75 147.86, 368.05 18.06, 283.03 -54.75 M665.55 277.27 C544.97 170.16, 425.32 66.38, 282.42 -56.12 M673.2 277 C587.36 200.93, 497.87 124.02, 288.46 -57.12 M671.73 277.61 C537.87 161, 405.22 44.4, 286.64 -57.33 M678.46 276.7 C580.01 192.85, 480.78 109.78, 290.99 -60.26 M677.36 276.58 C552.41 168.07, 428.49 59.54, 290.5 -59.39 M683.25 278.46 C544.12 159.33, 406.22 39.26, 294.24 -61.71 M683.14 276.97 C538.66 147.37, 391.87 19.13, 293.78 -61.64 M691.08 277.62 C534.73 148.44, 384.62 16.72, 299.4 -64.02 M689.99 276.67 C559.9 166.95, 433.13 56.82, 297.45 -62.94 M696.27 276.15 C574.21 167.73, 449.03 62.28, 302.14 -64.96 M696.45 277.7 C578.4 174.59, 459.29 72.22, 301.93 -66.12 M702.26 276.86 C574.44 167.23, 446.82 54.88, 304.28 -67.09 M702.38 277.37 C599.78 187.02, 497.78 98.45, 305.88 -68.07 M709.07 277.8 C567.33 157.9, 429.88 37.43, 309.6 -71.33 M707.48 277.31 C613.96 193.84, 520.44 112.95, 308.06 -70.8 M713.59 276.17 C630.1 198.02, 543.02 124.36, 312.73 -71.66 M714.49 276.4 C619.68 196.36, 525.81 113.25, 310.6 -72.68 M722.22 276.03 C586.88 161.65, 456.98 45.97, 312.49 -76.2 M720.92 277.06 C601.62 171.44, 480.71 66.59, 314.33 -76.55 M725.54 276.24 C632.93 198.14, 540.94 120.24, 318.66 -77.06 M727.05 276.59 C576.37 147.57, 425.85 16.77, 317.54 -78.55 M732.29 276.34 C603.1 166.53, 477.25 57.73, 318.96 -82.3 M731.35 276.44 C573.75 136.52, 413.8 -2.79, 319.43 -82.3 M736.11 275.99 C596.44 155.29, 457.96 35.37, 323.13 -84.41 M737.01 275.47 C589.49 150.09, 444.39 23.16, 322.47 -84.75 M741.73 273.7 C582.36 137.87, 423.64 2.01, 326.74 -85.86 M742.73 275.27 C578.81 135.1, 414.27 -8.47, 326.36 -87.15 M746.86 274.63 C609.54 152.33, 468.82 29.34, 328.51 -90.12 M748.4 275.37 C637.02 178.46, 524.87 81.93, 327.56 -90.69 M754.63 275.33 C649.73 185.85, 547.66 97.84, 329.46 -93.13 M752.96 274.14 C587.36 124.7, 421.38 -19.71, 331.09 -94.15 M758.61 274.7 C662.8 192.21, 568.27 108.14, 332.99 -97.44 M758.4 273.62 C594.92 129.77, 434.36 -9.85, 332.74 -96.59 M765.11 272.1 C675.57 202.08, 590.93 123.88, 336.31 -101.17 M764.67 272.97 C657.04 175.96, 549.49 83.62, 334.31 -100.63 M767.81 271.29 C674.73 187.01, 579.97 103.13, 337.05 -103.69 M769.72 272.65 C617.46 138.06, 467.45 5.47, 337.26 -103.39 M773.67 271.62 C613.41 127.32, 445.95 -18.03, 338.82 -108.14 M774.37 272.16 C682.73 189.88, 591.68 110.3, 340.07 -106.95 M778.83 271.18 C628.67 135.55, 473.49 3.31, 342.43 -111.07 M778.88 270.24 C683.14 187.73, 585.56 102.63, 342.01 -109.24 M784.56 269.59 C649.76 149.99, 513.91 31.78, 344.29 -115.2 M784.23 269.45 C646.02 147.01, 507.19 26.22, 344.56 -113.54 M786.96 266.01 C672.63 169.6, 559.84 72.37, 346.01 -116.5 M788.05 266.35 C684.32 177.07, 583.94 90.14, 346.45 -116.87 M793.75 266.39 C641.36 137.3, 490.76 8.04, 346.27 -120.76 M791.62 265.4 C618.65 116.61, 447.07 -34.16, 348.08 -121.61 M797.67 264.29 C621.9 116.29, 452.16 -30.17, 349.88 -124.32 M797.06 264.7 C626.26 114.56, 455.11 -34.37, 350.81 -123.99 M800.21 262.64 C699.88 179.86, 601.44 93.24, 353.19 -127.47 M800.43 262.07 C692.34 163.52, 582.14 68.95, 351.72 -127.3 M803.61 259.28 C710.58 176.64, 619.49 96.28, 352.97 -131.71 M804.4 259.87 C670.86 141.46, 536.01 22.91, 353.99 -130.99 M806.83 257.15 C655.83 127.44, 503.52 -5.46, 357.44 -134 M807.55 257.86 C682.13 145.92, 554.55 35.07, 355.24 -135.85 M810.61 254.13 C628.07 96.23, 450.27 -58.5, 356.97 -139.42 M809.27 254.43 C642.33 111.74, 475.61 -35.73, 358.04 -137.35 M812.17 250.91 C695.11 149.33, 576.2 45.83, 360.65 -142.6 M813.86 251.43 C681.58 139.67, 548.75 23.9, 359.91 -142.01 M817.86 249.01 C705.62 153.85, 594.38 56.96, 363.6 -144.21 M817.34 249.24 C647.24 103.46, 475.17 -46.51, 362.06 -145.29 M818.56 245.8 C637.43 86.41, 458.74 -69.87, 364.41 -148.34 M819.5 246.79 C705.08 151.37, 590.58 52.59, 364.11 -149.62 M821.38 244.83 C707.73 143.8, 593.13 45.57, 367.78 -152.83 M823.37 244.05 C691.6 133.51, 558.77 17.56, 366.67 -152.89 M823.59 239.91 C666.98 99.14, 511.02 -37.67, 369.94 -156.26 M824.96 240.73 C678.83 113.72, 534.22 -11.33, 369.3 -155.23 M827.33 236.98 C673.22 99.74, 516.44 -33.87, 370.79 -158.45 M827.78 237.55 C707.39 137.48, 587.66 32.86, 371.2 -159.35 M829.92 232.97 C673.54 98.55, 520.84 -36.19, 372.8 -163.59 M829.74 234.51 C715.03 139.65, 604.03 42.97, 373.2 -162.24 M830.22 228.43 C751.91 159.46, 676.82 95.06, 498.47 -58.84 M831.03 229.56 C750.07 160.86, 670.55 91.23, 500.11 -57.25 M466.04 -91.8 C428.87 -122.01, 396.51 -151.89, 379.15 -166.56 M461.44 -88.68 C432.64 -115.95, 399.8 -143.86, 376.39 -163.55 M831.88 227.01 C744.39 154.88, 662.82 83.92, 516.17 -49.12 M832.68 226.63 C717.24 130.23, 604.39 30.79, 514.29 -51.51 M454.32 -100.88 C427.57 -126.98, 394.31 -152.81, 382.64 -164.37 M454.9 -102.67 C438.53 -116.93, 421.35 -133.37, 380.64 -167.9 M835.05 221.11 C709.48 115.48, 588.69 9.7, 525.82 -46.84 M833.27 220.33 C731.68 134.4, 630.09 45.59, 524.68 -48.26 M445.95 -110.56 C425.56 -131.85, 401.83 -151.51, 381.53 -171.23 M447.28 -115.76 C428.33 -130.05, 407.59 -149.96, 384.45 -169.17 M835.65 215.48 C715.12 111.34, 600.16 13.8, 534.39 -44.87 M835.66 218.56 C755.97 151.66, 676.7 81.27, 533.07 -45.54 M439.19 -125.14 C418.86 -142.11, 401.73 -160.73, 387.83 -169.2 M439.88 -127.34 C419.72 -144.29, 402.63 -158.06, 384.25 -171.89 M835.07 213.17 C772.32 156.78, 706.78 102.84, 542.16 -45.86 M835.47 213.38 C754.35 144.77, 676.71 75.49, 541.27 -43.03 M434.08 -138.46 C416.15 -149.79, 408.58 -161.98, 392.07 -169.19 M432.52 -139.09 C415.65 -149.98, 402.38 -165.07, 391.72 -174.18 M833.82 206.95 C751.16 136.99, 672.03 68.82, 549.15 -43.52 M836.75 208.84 C720.42 107.29, 605.22 6.98, 546.68 -43.54 M419.88 -153.82 C415.51 -160.12, 406.17 -160.57, 396.53 -168.92 M422.99 -150.9 C415.73 -157.29, 404.82 -166.06, 399.04 -173.74 M835.39 202.39 C731.55 112.41, 631.44 22.94, 553.3 -41.93 M835.13 202.93 C738.07 117.87, 638.95 33.14, 554.6 -42.06 M838.42 196.49 C736.95 108.02, 640.35 21.95, 562.05 -40.65 M835.88 198.44 C767.99 140.3, 701.49 80.61, 561.83 -39.95 M838.69 190.89 C754.56 121.08, 668.42 52.3, 572 -41.41 M836.36 193.33 C742.69 109.8, 647.12 28.89, 570.87 -39.32 M839 188.31 C750.27 112.02, 665.37 35.35, 574.46 -36.85 M838.36 186.89 C736.1 105.47, 638.38 18.42, 576.09 -39.89 M836.04 184.31 C760.2 113.89, 676.66 43.32, 584.77 -37.09 M838.51 182.57 C768.03 123.14, 697.19 63.47, 583.46 -39.46 M837.42 174.83 C765.98 113.7, 691.4 50.95, 592.11 -40.08 M836.81 177.78 C748.65 96.03, 660.87 18.45, 588.78 -37.54 M839.33 172.96 C775.09 120.77, 714.33 65.13, 597.93 -38.66 M835.57 171.94 C752.58 101.46, 670.18 28.61, 595.16 -38.02 M836.39 166.45 C742.99 87.57, 653.45 11.41, 605.51 -35.82 M836.17 165.64 C787.31 120.26, 734.72 75.71, 604.48 -36.42 M836.27 160.3 C756.27 94.45, 676.88 26.69, 608.38 -38.3 M835.67 159.72 C751.67 87.56, 667.06 15.97, 608.04 -37.41 M833.48 152.5 C750.4 84.12, 667.71 15.89, 615.01 -36.44 M834.3 153.41 C750.78 81.34, 667.13 6.57, 616.78 -34.92 M833.87 148.64 C774.33 95.71, 718.43 49.16, 621.83 -34.68 M833.82 147.66 C756.56 85.58, 677.69 18.3, 622.22 -36.76 M836.33 144.35 C788.13 104.61, 734.54 58.05, 632.46 -38.09 M833.44 142.99 C787.25 104.83, 740.37 65.75, 630.08 -35.1 M836.04 136.81 C773.05 85.6, 713.72 36.59, 639.11 -31.48 M833.1 136.48 C771.04 82.09, 707.02 23.87, 635.72 -34.45 M836.29 131.83 C766.34 71.24, 697.31 13.93, 641.19 -33.73 M832.33 131.95 C769.34 74.45, 700.75 15.83, 642.4 -34.24 M831.1 128.27 C769.35 74.16, 710.1 17.51, 646.66 -33.3 M831.49 124.63 C788.82 91.34, 749.48 54.72, 648.99 -32.8 M833.85 121.55 C770.71 68.87, 717.11 24.88, 659.37 -30.44 M833.93 118.42 C770.64 71.76, 710.44 19.58, 655.89 -31.57 M833.52 114.47 C786.22 71.72, 740.26 34.16, 665.18 -29.14 M831.21 114.31 C790.88 80.71, 747.37 45.05, 661.69 -32.64 M830.08 108.38 C771.9 60.27, 716.52 8.36, 672.69 -28.96 M832.23 107.83 C776.92 62.13, 721.16 13.61, 669.87 -33.33 M830.26 99.58 C791.61 69.52, 756.03 35.56, 679.95 -29.44 M830.68 103.59 C776.38 56.47, 727.04 10.69, 674.76 -30.17 M832.5 93.14 C790.91 66.33, 752 28.06, 681.65 -26.54 M830.77 98.42 C784.05 58.67, 736.2 18.7, 683.23 -29.6 M830.44 90.99 C782.68 49.86, 736.83 6.68, 689.82 -29.57 M830.79 92.15 C793.86 64.13, 764.17 37.61, 691.15 -31.08 M828.07 88.44 C791.18 60.28, 757.11 23.83, 698.1 -32.37 M828.35 85.62 C773.98 40.21, 723.4 -4.49, 698.53 -28.13 M824.37 78.86 C788.69 44.42, 750.54 11.65, 707.2 -24.97 M828.51 79.49 C793.14 48.51, 756.92 20.15, 705.07 -27.69 M828.81 70.29 C799.18 48.79, 773.75 19.55, 712.29 -28.38 M826.86 71.77 C790.19 41.18, 754.51 7.04, 712.52 -28.44 M819.06 61.81 C789.61 39.46, 754.89 6.43, 722.01 -25.56 M822.76 62.73 C802.73 44.9, 781.34 25.2, 719.13 -27.35 M820.52 60.52 C799.45 41.59, 777.34 14.41, 729.49 -28.46 M822.35 56.36 C783.64 27.65, 751.4 -3.32, 726.15 -26.13 M816.8 50.56 C791.46 23.81, 759.21 -3.86, 731.29 -24.99 M820.5 49.89 C792.93 29.53, 767.86 6.83, 732.36 -25.79 M819.72 40.78 C793.26 20.46, 772.3 -0.6, 740.74 -20.05 M818.38 41.95 C795.88 26.42, 776.98 5.78, 742.83 -19.11 M812.58 34.42 C792.06 12.84, 773.1 -3.17, 752.08 -20.47 M814.13 34.8 C795.37 21.33, 782.59 7.52, 752.6 -19.08 M810.16 26.02 C792.12 5.82, 775.86 -3.75, 758.31 -16.05 M806.47 23.66 C793.89 9.68, 778.01 -1.46, 760.01 -15.48 M797.14 7.95 C786.3 0.37, 783.18 -0.5, 770.15 -6.61 M796.53 7.81 C788.44 0.86, 777.65 -7.03, 773.14 -9.41" stroke="#868e96" stroke-width="0.5" fill="none"></path><path d="M-2.64 -2.28 C-3.67 37.96, -50.08 198.35, -5.83 242.85 C38.42 287.35, 209.42 260.11, 262.87 264.72 C316.32 269.34, 281.76 269.02, 314.88 270.54 C348 272.05, 383.14 273.91, 461.6 273.8 C540.06 273.68, 723.09 291.61, 785.65 269.83 C848.21 248.05, 838.75 189.32, 836.96 143.11 C835.17 96.9, 829.66 25.45, 774.9 -7.44 C720.13 -40.34, 572.36 -26.95, 508.36 -54.26 C444.36 -81.56, 427.56 -170.54, 390.9 -171.27 C354.24 -171.99, 353.7 -87.41, 288.4 -58.58 C223.1 -29.75, 47.6 -8.47, -0.88 1.72 M1.12 2.66 C-0.16 43.21, -51.73 202.08, -7.15 246.25 C37.43 290.42, 214.89 263.26, 268.58 267.66 C322.27 272.05, 283.3 272.69, 314.99 272.64 C346.69 272.59, 379.86 268.11, 458.75 267.36 C537.64 266.61, 726.3 288.07, 788.34 268.16 C850.37 248.25, 833.45 193.75, 830.94 147.88 C828.44 102.01, 827.59 25.91, 773.32 -7.05 C719.05 -40.02, 569 -22.55, 505.33 -49.9 C441.66 -77.25, 427.19 -169.96, 391.3 -171.17 C355.4 -172.38, 354.52 -85.94, 289.96 -57.14 C225.4 -28.34, 52.82 -8.2, 3.95 1.65" stroke="#1e1e1e" stroke-width="1" fill="none"></path></g></g><mask></mask></svg>